<svg id="svg" version="1.1" xmlns="http://www.w3.org/2000/svg" xmlns:xlink="http://www.w3.org/1999/xlink" width="400" height="135" viewBox="0, 0, 400,135"><g id="svgg"><path id="path0" d="M279.269 65.188 C 278.302 65.281,277.478 65.472,276.897 65.738 C 276.407 65.962,275.649 66.197,275.212 66.261 C 274.287 66.395,273.897 66.571,273.365 67.095 C 273.154 67.303,272.685 67.524,272.324 67.585 C 271.893 67.658,271.539 67.856,271.292 68.162 C 271.086 68.418,270.692 68.742,270.417 68.880 C 269.614 69.285,267.624 71.355,267.118 72.311 L 266.653 73.190 267.177 73.803 C 267.691 74.404,267.894 74.621,269.415 76.193 C 269.829 76.621,270.167 77.054,270.167 77.156 C 270.167 77.258,270.356 77.413,270.586 77.501 C 270.817 77.589,271.072 77.835,271.153 78.048 C 271.234 78.261,271.570 78.641,271.900 78.893 C 272.230 79.144,272.500 79.440,272.500 79.550 C 272.500 79.660,272.763 79.959,273.083 80.215 C 273.404 80.471,273.667 80.766,273.667 80.870 C 273.667 80.974,273.910 81.292,274.208 81.576 C 274.833 82.171,278.841 86.435,279.683 87.401 C 279.995 87.759,280.427 88.225,280.643 88.437 C 280.860 88.649,281.160 89.065,281.310 89.361 C 281.504 89.743,281.820 89.996,282.397 90.230 C 283.726 90.769,283.667 91.153,283.667 81.960 C 283.667 72.264,283.499 72.998,285.713 73.005 C 287.111 73.010,287.293 73.048,287.724 73.427 L 288.198 73.844 288.224 86.396 C 288.252 99.771,288.235 99.500,289.036 99.500 C 289.217 99.500,289.564 99.363,289.808 99.196 C 290.051 99.030,290.625 98.755,291.083 98.585 C 291.542 98.416,292.020 98.132,292.147 97.955 C 292.273 97.777,292.632 97.525,292.944 97.394 C 293.256 97.264,293.591 96.982,293.689 96.769 C 293.786 96.555,294.121 96.258,294.433 96.109 C 295.134 95.775,295.140 95.525,294.474 94.347 C 293.010 91.757,292.275 86.260,293.101 84.083 C 293.240 83.717,293.527 82.879,293.738 82.221 C 293.950 81.563,294.289 80.813,294.493 80.554 C 294.697 80.295,294.963 79.845,295.085 79.555 C 295.206 79.264,295.499 78.899,295.736 78.744 C 295.973 78.589,296.167 78.389,296.167 78.301 C 296.167 78.092,298.091 76.167,298.300 76.167 C 298.941 76.167,298.741 74.670,297.964 73.650 C 296.387 71.580,294.516 69.566,293.583 68.934 C 293.125 68.624,292.611 68.216,292.441 68.028 C 292.271 67.840,291.925 67.640,291.672 67.584 C 291.419 67.529,291.050 67.333,290.852 67.148 C 290.382 66.710,289.607 66.402,288.622 66.260 C 288.185 66.197,287.422 65.960,286.927 65.734 C 285.528 65.093,282.500 64.877,279.269 65.188 M264.171 76.885 C 264.068 77.177,263.874 78.092,263.739 78.917 C 263.604 79.742,263.425 80.792,263.339 81.250 C 263.021 82.955,263.510 86.950,264.284 88.968 C 264.542 89.641,264.995 88.897,265.192 87.479 C 265.413 85.881,265.298 77.566,265.046 76.981 C 264.755 76.304,264.390 76.264,264.171 76.885 M298.742 82.085 C 298.519 82.589,298.130 83.315,297.877 83.697 C 297.339 84.509,297.155 89.958,297.636 90.802 C 297.928 91.313,298.376 91.204,298.583 90.572 C 298.675 90.293,298.900 89.844,299.083 89.574 C 299.582 88.838,299.799 88.269,299.919 87.383 C 299.978 86.943,300.096 86.358,300.180 86.083 C 301.067 83.171,299.809 79.672,298.742 82.085 M270.180 84.320 C 269.841 84.659,269.834 84.801,269.853 90.375 C 269.876 97.101,269.862 96.989,270.751 97.329 C 271.117 97.469,271.747 97.827,272.150 98.125 C 272.553 98.423,273.012 98.667,273.168 98.667 C 273.325 98.667,273.745 98.865,274.102 99.108 C 275.001 99.720,275.722 100.000,276.400 100.000 C 276.718 100.000,277.189 100.082,277.447 100.182 C 280.911 101.530,286.339 100.522,284.241 98.921 C 283.925 98.680,283.667 98.398,283.667 98.293 C 283.667 98.189,283.104 97.562,282.417 96.901 C 281.729 96.240,281.167 95.653,281.167 95.597 C 281.167 95.480,279.246 93.435,278.208 92.447 C 277.819 92.077,277.500 91.678,277.500 91.562 C 277.500 91.445,277.395 91.290,277.266 91.217 C 277.138 91.143,275.896 89.816,274.507 88.266 C 273.119 86.716,271.655 85.117,271.255 84.711 L 270.527 83.973 270.180 84.320 " stroke="none" fill="#39393a" fill-rule="evenodd"></path><path id="path1" d="M277.500 8.429 C 271.997 8.774,270.154 8.980,267.833 9.507 C 266.688 9.767,265.376 10.029,264.920 10.089 C 264.463 10.149,263.602 10.382,263.006 10.606 C 262.410 10.831,261.359 11.091,260.670 11.186 C 259.981 11.280,259.192 11.474,258.917 11.617 C 257.466 12.371,257.144 12.500,256.716 12.500 C 256.460 12.500,255.780 12.723,255.205 12.995 C 254.630 13.266,253.858 13.570,253.489 13.670 C 253.120 13.769,252.471 14.071,252.046 14.340 C 251.622 14.609,251.006 14.878,250.679 14.937 C 249.963 15.067,248.976 15.543,248.677 15.904 C 248.557 16.049,248.315 16.167,248.138 16.167 C 247.755 16.167,246.881 16.590,246.417 17.000 C 246.233 17.162,245.896 17.349,245.667 17.414 C 245.438 17.480,244.969 17.754,244.626 18.024 C 244.283 18.294,243.684 18.626,243.295 18.764 C 242.906 18.901,242.399 19.189,242.169 19.405 C 241.939 19.620,241.450 19.947,241.083 20.131 C 240.717 20.314,240.274 20.623,240.099 20.816 C 239.925 21.009,239.639 21.167,239.465 21.167 C 239.290 21.167,238.943 21.391,238.693 21.665 C 238.443 21.939,237.903 22.389,237.494 22.667 C 235.855 23.777,235.559 23.993,234.953 24.528 C 234.607 24.833,234.076 25.327,233.775 25.625 C 233.473 25.923,233.144 26.167,233.044 26.167 C 232.779 26.167,225.000 33.996,225.000 34.264 C 225.000 34.387,224.756 34.748,224.458 35.065 C 224.160 35.381,223.638 36.003,223.296 36.445 C 222.955 36.888,222.411 37.587,222.087 38.000 C 221.764 38.412,221.391 38.981,221.259 39.263 C 221.127 39.546,220.897 39.878,220.747 40.003 C 220.597 40.127,220.284 40.609,220.052 41.073 C 219.821 41.537,219.460 42.104,219.251 42.333 C 219.042 42.563,218.815 42.938,218.746 43.167 C 218.678 43.396,218.410 43.826,218.151 44.123 C 217.892 44.420,217.602 44.945,217.507 45.289 C 217.411 45.634,217.107 46.247,216.832 46.651 C 216.557 47.055,216.255 47.670,216.162 48.019 C 216.068 48.367,215.917 48.698,215.826 48.754 C 215.588 48.902,215.001 50.102,214.996 50.452 C 214.993 50.616,214.693 51.349,214.329 52.081 C 213.965 52.814,213.667 53.535,213.667 53.683 C 213.667 53.832,213.440 54.378,213.163 54.896 C 212.886 55.415,212.553 56.396,212.423 57.075 C 212.293 57.754,212.067 58.542,211.920 58.826 C 211.774 59.110,211.503 60.071,211.318 60.962 C 211.133 61.854,210.827 63.183,210.638 63.917 C 210.449 64.650,210.197 66.037,210.077 67.000 C 209.957 67.962,209.782 69.350,209.688 70.083 C 209.092 74.719,209.090 77.076,209.684 76.483 C 209.858 76.309,210.212 76.167,210.471 76.167 C 210.765 76.167,211.094 76.003,211.346 75.730 C 211.568 75.490,212.050 75.162,212.417 75.002 C 213.379 74.580,213.643 74.200,213.930 72.816 C 214.071 72.138,214.300 71.409,214.438 71.196 C 214.577 70.983,214.836 69.957,215.014 68.916 C 215.192 67.875,215.524 66.624,215.751 66.137 C 215.978 65.649,216.164 65.049,216.165 64.804 C 216.166 64.558,216.433 63.847,216.758 63.223 C 217.083 62.599,217.424 61.750,217.516 61.336 C 217.607 60.922,217.893 60.171,218.151 59.667 C 218.408 59.163,218.672 58.531,218.737 58.262 C 218.801 57.994,219.103 57.394,219.406 56.929 C 219.709 56.464,220.007 55.871,220.069 55.611 C 220.130 55.352,220.439 54.762,220.757 54.301 C 221.074 53.840,221.333 53.369,221.333 53.255 C 221.333 53.140,221.595 52.718,221.915 52.315 C 222.235 51.913,222.497 51.518,222.498 51.439 C 222.499 51.360,222.762 50.937,223.083 50.500 C 223.404 50.063,223.667 49.622,223.667 49.520 C 223.667 49.418,223.914 49.053,224.216 48.709 C 224.518 48.365,224.905 47.858,225.075 47.583 C 225.409 47.044,226.095 46.183,226.958 45.220 C 227.256 44.887,227.500 44.542,227.500 44.451 C 227.500 44.268,228.281 43.364,230.057 41.492 C 230.713 40.801,231.554 39.901,231.924 39.492 C 232.831 38.494,235.425 36.167,235.630 36.167 C 235.720 36.167,235.994 35.904,236.239 35.583 C 236.483 35.262,236.791 35.000,236.921 35.000 C 237.052 35.000,237.285 34.808,237.438 34.574 C 237.592 34.339,238.010 33.998,238.367 33.816 C 238.724 33.634,239.059 33.373,239.112 33.235 C 239.165 33.098,239.517 32.829,239.896 32.638 C 240.274 32.446,240.865 32.037,241.209 31.728 C 241.553 31.419,241.946 31.167,242.082 31.167 C 242.219 31.167,242.425 31.010,242.540 30.819 C 242.656 30.629,243.050 30.318,243.417 30.129 C 243.783 29.940,244.315 29.609,244.598 29.393 C 244.881 29.178,245.369 28.914,245.682 28.808 C 245.994 28.701,246.495 28.402,246.795 28.143 C 247.094 27.884,247.544 27.621,247.795 27.560 C 248.045 27.499,248.465 27.270,248.728 27.052 C 249.248 26.620,250.222 26.167,250.630 26.167 C 250.770 26.167,251.117 25.990,251.401 25.775 C 251.685 25.559,252.217 25.289,252.583 25.174 C 252.950 25.059,253.438 24.862,253.667 24.736 C 254.822 24.099,255.781 23.670,256.055 23.668 C 256.223 23.667,256.898 23.429,257.555 23.139 C 258.212 22.848,259.105 22.553,259.539 22.482 C 259.973 22.412,260.535 22.241,260.789 22.103 C 261.721 21.593,262.096 21.478,263.409 21.299 C 264.147 21.198,264.941 21.021,265.174 20.905 C 265.880 20.553,267.475 20.201,269.588 19.930 C 270.691 19.788,271.966 19.559,272.422 19.420 C 275.161 18.584,288.241 18.481,291.917 19.266 C 293.631 19.632,294.759 19.825,296.211 19.998 C 296.923 20.083,298.217 20.381,299.088 20.660 C 299.958 20.939,300.903 21.167,301.186 21.167 C 301.926 21.167,303.600 21.627,304.488 22.076 C 304.907 22.287,305.647 22.514,306.133 22.580 C 306.618 22.646,307.423 22.918,307.921 23.183 C 308.419 23.449,308.969 23.667,309.143 23.667 C 309.565 23.667,310.511 24.071,311.229 24.558 C 311.550 24.776,312.100 25.000,312.451 25.056 C 312.803 25.112,313.345 25.346,313.655 25.574 C 313.965 25.803,314.601 26.116,315.068 26.270 C 315.535 26.423,316.121 26.719,316.371 26.927 C 316.621 27.135,317.108 27.395,317.454 27.505 C 317.800 27.616,318.308 27.909,318.583 28.158 C 318.858 28.406,319.398 28.708,319.783 28.829 C 320.169 28.949,320.689 29.262,320.940 29.524 C 321.190 29.786,321.531 30.000,321.697 30.000 C 321.863 30.000,322.281 30.244,322.625 30.542 C 322.969 30.840,323.538 31.230,323.890 31.409 C 324.242 31.588,324.654 31.889,324.806 32.077 C 324.959 32.264,325.300 32.515,325.565 32.633 C 325.830 32.751,326.191 33.032,326.369 33.257 C 326.546 33.482,326.786 33.667,326.902 33.667 C 327.018 33.667,327.414 33.948,327.782 34.292 C 328.149 34.635,328.921 35.292,329.497 35.750 C 330.073 36.208,330.741 36.775,330.981 37.010 C 331.220 37.245,331.617 37.562,331.862 37.714 C 332.107 37.866,332.352 38.124,332.405 38.287 C 332.458 38.450,332.764 38.753,333.084 38.960 C 333.404 39.167,333.667 39.446,333.667 39.581 C 333.667 39.715,333.889 39.940,334.162 40.081 C 334.434 40.222,334.744 40.505,334.851 40.710 C 334.958 40.915,335.279 41.319,335.564 41.607 C 336.640 42.694,337.304 43.449,338.098 44.491 C 338.548 45.081,339.160 45.799,339.458 46.086 C 339.756 46.372,340.000 46.680,340.000 46.769 C 340.000 46.858,340.262 47.209,340.583 47.549 C 340.904 47.889,341.167 48.254,341.167 48.360 C 341.167 48.465,341.373 48.814,341.625 49.135 C 342.075 49.707,342.418 50.254,343.417 51.991 C 343.692 52.469,344.123 53.127,344.375 53.453 C 344.626 53.778,344.907 54.323,344.999 54.663 C 345.091 55.003,345.389 55.612,345.663 56.016 C 345.937 56.420,346.162 56.864,346.164 57.002 C 346.165 57.141,346.423 57.635,346.736 58.100 C 347.050 58.566,347.393 59.277,347.500 59.681 C 347.607 60.086,347.880 60.738,348.108 61.131 C 348.335 61.525,348.632 62.275,348.766 62.798 C 348.900 63.322,349.201 64.144,349.435 64.626 C 349.668 65.108,349.924 65.933,350.003 66.459 C 350.176 67.606,350.365 68.255,350.734 68.968 C 350.885 69.261,351.155 70.532,351.335 71.792 C 351.514 73.052,351.819 74.571,352.014 75.167 C 352.433 76.454,352.689 82.600,352.539 87.781 C 352.398 92.629,353.134 93.511,353.769 89.255 C 354.038 87.451,354.156 86.913,354.594 85.500 C 355.240 83.414,355.067 70.346,354.367 68.333 C 354.191 67.829,353.958 66.561,353.849 65.514 C 353.740 64.468,353.502 63.193,353.320 62.681 C 352.976 61.710,352.592 60.076,352.430 58.892 C 352.377 58.511,352.149 57.836,351.921 57.392 C 351.694 56.947,351.393 56.133,351.254 55.583 C 351.114 55.033,350.784 54.133,350.521 53.583 C 350.257 53.033,349.996 52.341,349.942 52.046 C 349.888 51.750,349.648 51.213,349.410 50.853 C 349.172 50.493,348.878 49.870,348.757 49.468 C 348.636 49.066,348.304 48.369,348.018 47.919 C 347.733 47.469,347.500 46.972,347.500 46.813 C 347.500 46.655,347.311 46.301,347.080 46.027 C 346.850 45.753,346.476 45.109,346.249 44.597 C 346.023 44.086,345.770 43.667,345.687 43.667 C 345.604 43.667,345.378 43.330,345.185 42.918 C 344.991 42.505,344.570 41.825,344.250 41.405 C 343.929 40.985,343.667 40.563,343.667 40.468 C 343.667 40.373,343.476 40.060,343.243 39.773 C 341.978 38.209,341.167 37.088,341.167 36.901 C 341.167 36.786,340.975 36.540,340.740 36.355 C 340.505 36.171,340.149 35.795,339.948 35.521 C 338.733 33.860,337.928 32.953,335.559 30.571 C 332.514 27.509,331.077 26.167,330.846 26.167 C 330.757 26.167,330.483 25.904,330.239 25.583 C 329.994 25.262,329.702 25.000,329.591 25.000 C 329.479 25.000,329.119 24.700,328.790 24.333 C 328.460 23.967,328.087 23.667,327.960 23.667 C 327.833 23.667,327.515 23.443,327.254 23.171 C 326.992 22.898,326.538 22.595,326.244 22.498 C 325.950 22.401,325.473 22.062,325.184 21.744 C 324.895 21.427,324.561 21.167,324.442 21.167 C 324.322 21.167,324.043 20.971,323.821 20.732 C 323.598 20.493,323.042 20.118,322.583 19.898 C 322.125 19.678,321.495 19.311,321.184 19.083 C 320.872 18.854,320.492 18.667,320.338 18.667 C 320.184 18.667,319.887 18.485,319.678 18.262 C 319.469 18.040,318.894 17.694,318.399 17.493 C 317.905 17.292,317.500 17.058,317.500 16.972 C 317.500 16.780,316.197 16.175,315.772 16.170 C 315.601 16.168,315.213 15.949,314.910 15.683 C 314.588 15.400,314.015 15.126,313.528 15.022 C 313.070 14.923,312.414 14.652,312.069 14.418 C 311.725 14.184,311.024 13.872,310.513 13.725 C 310.002 13.578,309.283 13.286,308.917 13.075 C 308.550 12.864,307.950 12.642,307.583 12.582 C 306.558 12.413,305.795 12.152,305.291 11.798 C 305.027 11.613,304.104 11.345,303.124 11.169 C 302.185 11.000,301.141 10.745,300.804 10.601 C 300.468 10.457,299.543 10.226,298.751 10.088 C 297.958 9.950,296.546 9.653,295.613 9.429 C 293.654 8.958,291.614 8.741,286.833 8.497 C 284.954 8.401,282.929 8.293,282.333 8.258 C 281.737 8.222,279.563 8.299,277.500 8.429 M280.000 47.941 C 279.771 47.975,278.458 48.154,277.083 48.339 C 272.869 48.905,272.281 49.017,271.369 49.426 C 270.884 49.643,270.209 49.867,269.869 49.924 C 268.838 50.097,268.113 50.350,267.500 50.750 C 267.179 50.959,266.644 51.178,266.311 51.236 C 265.978 51.294,265.378 51.564,264.978 51.837 C 264.577 52.109,263.968 52.411,263.624 52.506 C 263.279 52.602,262.771 52.902,262.493 53.173 C 262.216 53.445,261.892 53.667,261.773 53.667 C 261.655 53.667,261.378 53.859,261.157 54.094 C 260.936 54.329,260.492 54.680,260.170 54.874 C 259.592 55.221,258.606 56.017,257.537 56.998 C 257.236 57.274,256.914 57.500,256.821 57.500 C 256.605 57.500,255.000 59.097,255.000 59.311 C 255.000 59.400,254.700 59.710,254.333 60.000 C 253.967 60.290,253.667 60.602,253.667 60.692 C 253.667 60.782,253.403 61.132,253.081 61.470 C 252.758 61.807,252.279 62.308,252.017 62.583 C 251.754 62.858,251.387 63.383,251.202 63.750 C 251.017 64.117,250.671 64.598,250.433 64.821 C 250.195 65.043,250.000 65.356,250.000 65.516 C 250.000 65.677,249.823 66.020,249.607 66.279 C 249.115 66.869,248.667 67.731,248.667 68.089 C 248.667 68.239,248.445 68.674,248.173 69.056 C 247.902 69.438,247.602 70.105,247.506 70.540 C 247.411 70.974,247.109 71.762,246.835 72.290 C 246.473 72.986,246.295 73.633,246.184 74.647 C 246.101 75.415,245.961 76.090,245.874 76.147 C 245.513 76.383,245.333 77.046,245.333 78.145 C 245.333 80.221,245.854 80.784,246.100 78.974 C 246.170 78.459,246.363 78.026,246.673 77.686 C 246.972 77.359,247.216 76.827,247.348 76.212 C 247.462 75.683,247.697 74.987,247.869 74.667 C 248.042 74.346,248.284 73.896,248.408 73.667 C 248.531 73.438,248.723 72.950,248.834 72.583 C 248.945 72.217,249.252 71.640,249.518 71.301 C 249.783 70.963,250.000 70.575,250.000 70.439 C 250.000 70.303,250.267 69.842,250.594 69.414 C 250.920 68.986,251.276 68.437,251.384 68.193 C 251.901 67.027,256.575 61.930,257.770 61.229 C 258.155 61.004,258.513 60.707,258.566 60.569 C 258.619 60.431,258.923 60.209,259.242 60.076 C 259.560 59.943,259.901 59.685,259.999 59.502 C 260.097 59.319,260.418 59.046,260.713 58.895 C 261.008 58.744,261.492 58.410,261.787 58.153 C 262.083 57.895,262.584 57.613,262.902 57.525 C 263.220 57.438,263.728 57.180,264.031 56.953 C 264.335 56.726,264.883 56.439,265.250 56.315 C 265.617 56.191,266.281 55.844,266.727 55.545 C 267.173 55.245,267.701 55.000,267.900 55.000 C 268.100 55.000,268.560 54.847,268.923 54.659 C 269.678 54.270,271.724 53.667,272.291 53.667 C 272.501 53.667,273.212 53.478,273.872 53.248 C 276.991 52.158,286.672 52.193,290.346 53.308 C 290.935 53.487,291.904 53.722,292.500 53.830 C 293.096 53.939,293.953 54.213,294.405 54.439 C 294.857 54.665,295.594 54.929,296.043 55.025 C 296.516 55.126,297.092 55.404,297.410 55.683 C 297.713 55.949,298.076 56.167,298.217 56.167 C 298.615 56.167,300.000 56.802,300.000 56.985 C 300.000 57.075,300.444 57.311,300.988 57.509 C 301.531 57.707,302.144 58.049,302.350 58.268 C 302.556 58.487,302.818 58.667,302.932 58.667 C 303.045 58.667,303.423 58.967,303.770 59.333 C 304.118 59.700,304.480 60.000,304.576 60.001 C 305.406 60.006,312.304 67.079,312.590 68.217 C 312.649 68.451,312.848 68.779,313.032 68.946 C 313.217 69.113,313.572 69.699,313.822 70.250 C 314.072 70.800,314.398 71.350,314.546 71.471 C 314.694 71.593,314.899 72.098,315.002 72.595 C 315.125 73.184,315.349 73.657,315.648 73.957 C 315.949 74.259,316.201 74.792,316.381 75.512 C 316.532 76.115,316.721 76.786,316.802 77.004 L 316.949 77.400 317.248 76.943 C 317.708 76.241,317.493 73.940,316.841 72.589 C 316.574 72.036,316.302 71.283,316.236 70.917 C 316.170 70.550,315.945 70.024,315.735 69.747 C 315.525 69.470,315.255 68.870,315.135 68.414 C 315.016 67.957,314.637 67.208,314.293 66.750 C 313.949 66.292,313.668 65.797,313.667 65.651 C 313.667 65.505,313.518 65.250,313.336 65.086 C 313.154 64.921,312.788 64.403,312.522 63.935 C 312.255 63.467,311.842 62.902,311.602 62.679 C 311.363 62.457,311.167 62.179,311.167 62.061 C 311.167 61.944,310.904 61.638,310.583 61.382 C 310.263 61.126,310.000 60.828,310.000 60.720 C 310.000 60.612,309.784 60.350,309.519 60.137 C 309.255 59.924,308.918 59.512,308.771 59.220 C 308.624 58.929,308.366 58.647,308.199 58.593 C 308.031 58.540,307.728 58.272,307.525 57.998 C 307.322 57.724,307.049 57.500,306.917 57.500 C 306.785 57.500,306.511 57.276,306.308 57.002 C 306.106 56.728,305.800 56.459,305.628 56.404 C 305.457 56.350,305.073 56.068,304.775 55.778 C 304.121 55.139,302.847 54.204,302.014 53.750 C 301.678 53.567,301.241 53.252,301.043 53.050 C 300.846 52.849,300.363 52.598,299.970 52.492 C 299.577 52.386,299.012 52.086,298.715 51.825 C 298.417 51.563,297.891 51.299,297.545 51.237 C 297.200 51.175,296.467 50.880,295.917 50.582 C 295.367 50.284,294.560 49.995,294.124 49.940 C 293.689 49.885,293.034 49.687,292.670 49.502 C 291.871 49.094,290.225 48.741,288.417 48.590 C 287.683 48.528,286.459 48.333,285.695 48.156 C 284.401 47.855,281.349 47.740,280.000 47.941 M50.175 61.378 C 49.097 61.657,49.167 60.164,49.167 82.864 L 49.167 103.488 49.789 103.911 C 50.698 104.529,54.619 104.557,55.517 103.952 L 56.083 103.570 56.126 83.186 C 56.170 61.799,56.173 61.883,55.438 61.527 C 54.920 61.277,50.996 61.165,50.175 61.378 M211.516 82.260 C 211.324 82.586,211.167 82.921,211.167 83.005 C 211.167 83.088,210.926 83.628,210.632 84.203 C 209.824 85.784,209.757 87.920,210.460 89.677 C 210.733 90.359,211.008 91.223,211.071 91.596 C 211.135 91.970,211.360 92.563,211.572 92.915 L 211.957 93.553 212.270 93.076 C 212.860 92.177,213.059 82.559,212.500 82.000 C 212.043 81.543,211.920 81.576,211.516 82.260 M351.845 94.458 C 351.854 94.934,351.888 95.005,351.986 94.753 C 352.105 94.448,352.046 93.833,351.897 93.833 C 351.862 93.833,351.839 94.115,351.845 94.458 " stroke="none" fill="#fbcd0a" fill-rule="evenodd"></path><path id="path2" d="M0.000 67.500 L 0.000 135.000 200.000 135.000 L 400.000 135.000 400.000 67.500 L 400.000 0.000 200.000 0.000 L 0.000 0.000 0.000 67.500 M286.833 8.497 C 291.614 8.741,293.654 8.958,295.613 9.429 C 296.546 9.653,297.958 9.950,298.751 10.088 C 299.543 10.226,300.468 10.457,300.804 10.601 C 301.141 10.745,302.185 11.000,303.124 11.169 C 304.104 11.345,305.027 11.613,305.291 11.798 C 305.795 12.152,306.558 12.413,307.583 12.582 C 307.950 12.642,308.550 12.864,308.917 13.075 C 309.283 13.286,310.002 13.578,310.513 13.725 C 311.024 13.872,311.725 14.184,312.069 14.418 C 312.414 14.652,313.070 14.923,313.528 15.022 C 314.015 15.126,314.588 15.400,314.910 15.683 C 315.213 15.949,315.601 16.168,315.772 16.170 C 316.197 16.175,317.500 16.780,317.500 16.972 C 317.500 17.058,317.905 17.292,318.399 17.493 C 318.894 17.694,319.469 18.040,319.678 18.262 C 319.887 18.485,320.184 18.667,320.338 18.667 C 320.492 18.667,320.872 18.854,321.184 19.083 C 321.495 19.311,322.125 19.678,322.583 19.898 C 323.042 20.118,323.598 20.493,323.821 20.732 C 324.043 20.971,324.322 21.167,324.442 21.167 C 324.561 21.167,324.895 21.427,325.184 21.744 C 325.473 22.062,325.950 22.401,326.244 22.498 C 326.538 22.595,326.992 22.898,327.254 23.171 C 327.515 23.443,327.833 23.667,327.960 23.667 C 328.087 23.667,328.460 23.967,328.790 24.333 C 329.119 24.700,329.479 25.000,329.591 25.000 C 329.702 25.000,329.994 25.262,330.239 25.583 C 330.483 25.904,330.757 26.167,330.846 26.167 C 331.077 26.167,332.514 27.509,335.559 30.571 C 337.928 32.953,338.733 33.860,339.948 35.521 C 340.149 35.795,340.505 36.171,340.740 36.355 C 340.975 36.540,341.167 36.786,341.167 36.901 C 341.167 37.088,341.978 38.209,343.243 39.773 C 343.476 40.060,343.667 40.373,343.667 40.468 C 343.667 40.563,343.929 40.985,344.250 41.405 C 344.570 41.825,344.991 42.505,345.185 42.918 C 345.378 43.330,345.604 43.667,345.687 43.667 C 345.770 43.667,346.023 44.086,346.249 44.597 C 346.476 45.109,346.850 45.753,347.080 46.027 C 347.311 46.301,347.500 46.655,347.500 46.813 C 347.500 46.972,347.733 47.469,348.018 47.919 C 348.304 48.369,348.636 49.066,348.757 49.468 C 348.878 49.870,349.172 50.493,349.410 50.853 C 349.648 51.213,349.888 51.750,349.942 52.046 C 349.996 52.341,350.257 53.033,350.521 53.583 C 350.784 54.133,351.114 55.033,351.254 55.583 C 351.393 56.133,351.694 56.947,351.921 57.392 C 352.149 57.836,352.377 58.511,352.430 58.892 C 352.592 60.076,352.976 61.710,353.320 62.681 C 353.502 63.193,353.740 64.468,353.849 65.514 C 353.958 66.561,354.191 67.829,354.367 68.333 C 355.067 70.346,355.240 83.414,354.594 85.500 C 354.156 86.913,354.038 87.451,353.769 89.255 C 353.134 93.511,352.398 92.629,352.539 87.781 C 352.689 82.600,352.433 76.454,352.014 75.167 C 351.819 74.571,351.514 73.052,351.335 71.792 C 351.155 70.532,350.885 69.261,350.734 68.968 C 350.365 68.255,350.176 67.606,350.003 66.459 C 349.924 65.933,349.668 65.108,349.435 64.626 C 349.201 64.144,348.900 63.322,348.766 62.798 C 348.632 62.275,348.335 61.525,348.108 61.131 C 347.880 60.738,347.607 60.086,347.500 59.681 C 347.393 59.277,347.050 58.566,346.736 58.100 C 346.423 57.635,346.165 57.141,346.164 57.002 C 346.162 56.864,345.937 56.420,345.663 56.016 C 345.389 55.612,345.091 55.003,344.999 54.663 C 344.907 54.323,344.626 53.778,344.375 53.453 C 344.123 53.127,343.692 52.469,343.417 51.991 C 342.418 50.254,342.075 49.707,341.625 49.135 C 341.373 48.814,341.167 48.465,341.167 48.360 C 341.167 48.254,340.904 47.889,340.583 47.549 C 340.262 47.209,340.000 46.858,340.000 46.769 C 340.000 46.680,339.756 46.372,339.458 46.086 C 339.160 45.799,338.548 45.081,338.098 44.491 C 337.304 43.449,336.640 42.694,335.564 41.607 C 335.279 41.319,334.958 40.915,334.851 40.710 C 334.744 40.505,334.434 40.222,334.162 40.081 C 333.889 39.940,333.667 39.715,333.667 39.581 C 333.667 39.446,333.404 39.167,333.084 38.960 C 332.764 38.753,332.458 38.450,332.405 38.287 C 332.352 38.124,332.107 37.866,331.862 37.714 C 331.617 37.562,331.220 37.245,330.981 37.010 C 330.741 36.775,330.073 36.208,329.497 35.750 C 328.921 35.292,328.149 34.635,327.782 34.292 C 327.414 33.948,327.018 33.667,326.902 33.667 C 326.786 33.667,326.546 33.482,326.369 33.257 C 326.191 33.032,325.830 32.751,325.565 32.633 C 325.300 32.515,324.959 32.264,324.806 32.077 C 324.654 31.889,324.242 31.588,323.890 31.409 C 323.538 31.230,322.969 30.840,322.625 30.542 C 322.281 30.244,321.863 30.000,321.697 30.000 C 321.531 30.000,321.190 29.786,320.940 29.524 C 320.689 29.262,320.169 28.949,319.783 28.829 C 319.398 28.708,318.858 28.406,318.583 28.158 C 318.308 27.909,317.800 27.616,317.454 27.505 C 317.108 27.395,316.621 27.135,316.371 26.927 C 316.121 26.719,315.535 26.423,315.068 26.270 C 314.601 26.116,313.965 25.803,313.655 25.574 C 313.345 25.346,312.803 25.112,312.451 25.056 C 312.100 25.000,311.550 24.776,311.229 24.558 C 310.511 24.071,309.565 23.667,309.143 23.667 C 308.969 23.667,308.419 23.449,307.921 23.183 C 307.423 22.918,306.618 22.646,306.133 22.580 C 305.647 22.514,304.907 22.287,304.488 22.076 C 303.600 21.627,301.926 21.167,301.186 21.167 C 300.903 21.167,299.958 20.939,299.088 20.660 C 298.217 20.381,296.923 20.083,296.211 19.998 C 294.759 19.825,293.631 19.632,291.917 19.266 C 288.241 18.481,275.161 18.584,272.422 19.420 C 271.966 19.559,270.691 19.788,269.588 19.930 C 267.475 20.201,265.880 20.553,265.174 20.905 C 264.941 21.021,264.147 21.198,263.409 21.299 C 262.096 21.478,261.721 21.593,260.789 22.103 C 260.535 22.241,259.973 22.412,259.539 22.482 C 259.105 22.553,258.212 22.848,257.555 23.139 C 256.898 23.429,256.223 23.667,256.055 23.668 C 255.781 23.670,254.822 24.099,253.667 24.736 C 253.438 24.862,252.950 25.059,252.583 25.174 C 252.217 25.289,251.685 25.559,251.401 25.775 C 251.117 25.990,250.770 26.167,250.630 26.167 C 250.222 26.167,249.248 26.620,248.728 27.052 C 248.465 27.270,248.045 27.499,247.795 27.560 C 247.544 27.621,247.094 27.884,246.795 28.143 C 246.495 28.402,245.994 28.701,245.682 28.808 C 245.369 28.914,244.881 29.178,244.598 29.393 C 244.315 29.609,243.783 29.940,243.417 30.129 C 243.050 30.318,242.656 30.629,242.540 30.819 C 242.425 31.010,242.219 31.167,242.082 31.167 C 241.946 31.167,241.553 31.419,241.209 31.728 C 240.865 32.037,240.274 32.446,239.896 32.638 C 239.517 32.829,239.165 33.098,239.112 33.235 C 239.059 33.373,238.724 33.634,238.367 33.816 C 238.010 33.998,237.592 34.339,237.438 34.574 C 237.285 34.808,237.052 35.000,236.921 35.000 C 236.791 35.000,236.483 35.262,236.239 35.583 C 235.994 35.904,235.720 36.167,235.630 36.167 C 235.425 36.167,232.831 38.494,231.924 39.492 C 231.554 39.901,230.713 40.801,230.057 41.492 C 228.281 43.364,227.500 44.268,227.500 44.451 C 227.500 44.542,227.256 44.887,226.958 45.220 C 226.095 46.183,225.409 47.044,225.075 47.583 C 224.905 47.858,224.518 48.365,224.216 48.709 C 223.914 49.053,223.667 49.418,223.667 49.520 C 223.667 49.622,223.404 50.063,223.083 50.500 C 222.762 50.937,222.499 51.360,222.498 51.439 C 222.497 51.518,222.235 51.913,221.915 52.315 C 221.595 52.718,221.333 53.140,221.333 53.255 C 221.333 53.369,221.074 53.840,220.757 54.301 C 220.439 54.762,220.130 55.352,220.069 55.611 C 220.007 55.871,219.709 56.464,219.406 56.929 C 219.103 57.394,218.801 57.994,218.737 58.262 C 218.672 58.531,218.408 59.163,218.151 59.667 C 217.893 60.171,217.607 60.922,217.516 61.336 C 217.424 61.750,217.083 62.599,216.758 63.223 C 216.433 63.847,216.166 64.558,216.165 64.804 C 216.164 65.049,215.978 65.649,215.751 66.137 C 215.524 66.624,215.192 67.875,215.014 68.916 C 214.836 69.957,214.573 70.988,214.429 71.208 C 213.216 73.060,214.373 74.333,216.352 73.324 C 218.478 72.239,224.322 72.773,225.584 74.167 C 226.037 74.668,226.321 77.990,225.958 78.544 C 225.633 79.040,224.289 78.917,223.451 78.314 C 221.991 77.264,218.591 77.280,216.345 78.348 C 212.943 79.965,212.934 79.990,212.742 87.960 C 212.600 93.850,212.616 93.942,214.016 95.238 C 214.569 95.750,215.218 96.188,215.522 96.255 C 215.816 96.319,216.580 96.595,217.221 96.868 C 217.995 97.197,218.780 97.391,219.567 97.448 C 220.782 97.535,220.837 97.522,224.083 96.401 C 224.567 96.234,225.351 95.736,225.952 95.214 C 226.880 94.409,227.045 94.327,227.542 94.420 L 228.097 94.524 228.292 96.358 L 228.487 98.193 228.035 99.042 C 227.551 99.953,226.331 100.951,225.424 101.177 C 225.145 101.247,224.167 101.507,223.250 101.754 C 221.330 102.273,217.558 102.292,216.566 101.788 C 216.300 101.654,215.632 101.431,215.081 101.293 C 214.529 101.155,213.708 100.808,213.256 100.521 C 212.804 100.234,212.312 100.000,212.161 100.000 C 212.011 100.000,211.619 99.700,211.290 99.333 C 210.960 98.967,210.607 98.667,210.504 98.667 C 210.261 98.667,208.667 96.978,208.667 96.720 C 208.667 96.612,208.446 96.366,208.177 96.174 C 207.907 95.982,207.634 95.660,207.570 95.458 C 207.506 95.257,207.206 94.715,206.903 94.254 C 206.600 93.794,206.304 93.192,206.245 92.917 C 206.186 92.642,205.911 91.744,205.634 90.922 C 204.995 89.024,205.003 85.697,205.650 83.917 C 205.850 83.367,206.089 82.585,206.181 82.179 C 206.273 81.773,206.607 81.088,206.924 80.657 C 207.241 80.225,207.500 79.754,207.500 79.611 C 207.500 79.467,207.753 79.102,208.061 78.800 C 208.370 78.497,208.672 78.091,208.732 77.897 C 208.793 77.703,208.983 77.416,209.156 77.260 C 209.415 77.026,209.442 76.883,209.311 76.446 C 209.149 75.910,209.331 72.839,209.687 70.083 C 209.782 69.350,209.957 67.962,210.077 67.000 C 210.197 66.037,210.449 64.650,210.638 63.917 C 210.827 63.183,211.133 61.854,211.318 60.962 C 211.503 60.071,211.774 59.110,211.920 58.826 C 212.067 58.542,212.293 57.754,212.423 57.075 C 212.553 56.396,212.886 55.415,213.163 54.896 C 213.440 54.378,213.667 53.832,213.667 53.683 C 213.667 53.535,213.965 52.814,214.329 52.081 C 214.693 51.349,214.993 50.616,214.996 50.452 C 215.001 50.102,215.588 48.902,215.826 48.754 C 215.917 48.698,216.068 48.367,216.162 48.019 C 216.255 47.670,216.557 47.055,216.832 46.651 C 217.107 46.247,217.411 45.634,217.507 45.289 C 217.602 44.945,217.892 44.420,218.151 44.123 C 218.410 43.826,218.678 43.396,218.746 43.167 C 218.815 42.938,219.042 42.563,219.251 42.333 C 219.460 42.104,219.821 41.537,220.052 41.073 C 220.284 40.609,220.597 40.127,220.747 40.003 C 220.897 39.878,221.127 39.546,221.259 39.263 C 221.391 38.981,221.764 38.412,222.087 38.000 C 222.411 37.587,222.955 36.888,223.296 36.445 C 223.638 36.003,224.160 35.381,224.458 35.065 C 224.756 34.748,225.000 34.387,225.000 34.264 C 225.000 33.996,232.779 26.167,233.044 26.167 C 233.144 26.167,233.473 25.923,233.775 25.625 C 234.076 25.327,234.607 24.833,234.953 24.528 C 235.559 23.993,235.855 23.777,237.494 22.667 C 237.903 22.389,238.443 21.939,238.693 21.665 C 238.943 21.391,239.290 21.167,239.465 21.167 C 239.639 21.167,239.925 21.009,240.099 20.816 C 240.274 20.623,240.717 20.314,241.083 20.131 C 241.450 19.947,241.939 19.620,242.169 19.405 C 242.399 19.189,242.906 18.901,243.295 18.764 C 243.684 18.626,244.283 18.294,244.626 18.024 C 244.969 17.754,245.438 17.480,245.667 17.414 C 245.896 17.349,246.233 17.162,246.417 17.000 C 246.881 16.590,247.755 16.167,248.138 16.167 C 248.315 16.167,248.557 16.049,248.677 15.904 C 248.976 15.543,249.963 15.067,250.679 14.937 C 251.006 14.878,251.622 14.609,252.046 14.340 C 252.471 14.071,253.120 13.769,253.489 13.670 C 253.858 13.570,254.630 13.266,255.205 12.995 C 255.780 12.723,256.460 12.500,256.716 12.500 C 257.144 12.500,257.466 12.371,258.917 11.617 C 259.192 11.474,259.981 11.280,260.670 11.186 C 261.359 11.091,262.410 10.831,263.006 10.606 C 263.602 10.382,264.463 10.149,264.920 10.089 C 265.376 10.029,266.688 9.767,267.833 9.507 C 268.979 9.246,270.779 8.951,271.833 8.849 C 275.115 8.533,281.199 8.190,282.333 8.258 C 282.929 8.293,284.954 8.401,286.833 8.497 M285.695 48.156 C 286.459 48.333,287.683 48.528,288.417 48.590 C 290.225 48.741,291.871 49.094,292.670 49.502 C 293.034 49.687,293.689 49.885,294.124 49.940 C 294.560 49.995,295.367 50.284,295.917 50.582 C 296.467 50.880,297.200 51.175,297.545 51.237 C 297.891 51.299,298.417 51.563,298.715 51.825 C 299.012 52.086,299.577 52.386,299.970 52.492 C 300.363 52.598,300.846 52.849,301.043 53.050 C 301.241 53.252,301.678 53.567,302.014 53.750 C 302.847 54.204,304.121 55.139,304.775 55.778 C 305.073 56.068,305.457 56.350,305.628 56.404 C 305.800 56.459,306.106 56.728,306.308 57.002 C 306.511 57.276,306.785 57.500,306.917 57.500 C 307.049 57.500,307.322 57.724,307.525 57.998 C 307.728 58.272,308.031 58.540,308.199 58.593 C 308.366 58.647,308.624 58.929,308.771 59.220 C 308.918 59.512,309.255 59.924,309.519 60.137 C 309.784 60.350,310.000 60.612,310.000 60.720 C 310.000 60.828,310.263 61.126,310.583 61.382 C 310.904 61.638,311.167 61.944,311.167 62.061 C 311.167 62.179,311.363 62.457,311.602 62.679 C 311.842 62.902,312.255 63.467,312.522 63.935 C 312.788 64.403,313.154 64.921,313.336 65.086 C 313.518 65.250,313.667 65.505,313.667 65.651 C 313.668 65.797,313.949 66.292,314.293 66.750 C 314.637 67.208,315.016 67.957,315.135 68.414 C 315.255 68.870,315.525 69.470,315.735 69.747 C 315.945 70.024,316.170 70.550,316.236 70.917 C 316.302 71.283,316.574 72.036,316.841 72.589 C 317.493 73.940,317.708 76.241,317.248 76.943 L 316.949 77.400 316.802 77.004 C 316.721 76.786,316.532 76.115,316.381 75.512 C 316.201 74.792,315.949 74.259,315.648 73.957 C 315.349 73.657,315.125 73.184,315.002 72.595 C 314.899 72.098,314.694 71.593,314.546 71.471 C 314.398 71.350,314.072 70.800,313.822 70.250 C 313.572 69.699,313.217 69.113,313.032 68.946 C 312.848 68.779,312.649 68.451,312.590 68.217 C 312.304 67.079,305.406 60.006,304.576 60.001 C 304.480 60.000,304.118 59.700,303.770 59.333 C 303.423 58.967,303.045 58.667,302.932 58.667 C 302.818 58.667,302.556 58.487,302.350 58.268 C 302.144 58.049,301.531 57.707,300.988 57.509 C 300.444 57.311,300.000 57.075,300.000 56.985 C 300.000 56.802,298.615 56.167,298.217 56.167 C 298.076 56.167,297.713 55.949,297.410 55.683 C 297.092 55.404,296.516 55.126,296.043 55.025 C 295.594 54.929,294.857 54.665,294.405 54.439 C 293.953 54.213,293.096 53.939,292.500 53.830 C 291.904 53.722,290.935 53.487,290.346 53.308 C 286.672 52.193,276.991 52.158,273.872 53.248 C 273.212 53.478,272.501 53.667,272.291 53.667 C 271.724 53.667,269.678 54.270,268.923 54.659 C 268.560 54.847,268.100 55.000,267.900 55.000 C 267.701 55.000,267.173 55.245,266.727 55.545 C 266.281 55.844,265.617 56.191,265.250 56.315 C 264.883 56.439,264.335 56.726,264.031 56.953 C 263.728 57.180,263.220 57.438,262.902 57.525 C 262.584 57.613,262.083 57.895,261.787 58.153 C 261.492 58.410,261.008 58.744,260.713 58.895 C 260.418 59.046,260.097 59.319,259.999 59.502 C 259.901 59.685,259.560 59.943,259.242 60.076 C 258.923 60.209,258.619 60.431,258.566 60.569 C 258.513 60.707,258.155 61.004,257.770 61.229 C 256.575 61.930,251.901 67.027,251.384 68.193 C 251.276 68.437,250.920 68.986,250.594 69.414 C 250.267 69.842,250.000 70.303,250.000 70.439 C 250.000 70.575,249.783 70.963,249.518 71.301 C 249.252 71.640,248.945 72.217,248.834 72.583 C 248.723 72.950,248.531 73.438,248.408 73.667 C 248.284 73.896,248.042 74.346,247.869 74.667 C 247.697 74.987,247.462 75.683,247.348 76.212 C 247.216 76.827,246.972 77.359,246.673 77.686 C 246.363 78.026,246.170 78.459,246.100 78.974 C 245.854 80.784,245.333 80.221,245.333 78.145 C 245.333 77.046,245.513 76.383,245.874 76.147 C 245.961 76.090,246.101 75.415,246.184 74.647 C 246.295 73.633,246.473 72.986,246.835 72.290 C 247.109 71.762,247.411 70.974,247.506 70.540 C 247.602 70.105,247.902 69.438,248.173 69.056 C 248.445 68.674,248.667 68.239,248.667 68.089 C 248.667 67.731,249.115 66.869,249.607 66.279 C 249.823 66.020,250.000 65.677,250.000 65.516 C 250.000 65.356,250.195 65.043,250.433 64.821 C 250.671 64.598,251.017 64.117,251.202 63.750 C 251.387 63.383,251.754 62.858,252.017 62.583 C 252.279 62.308,252.758 61.807,253.081 61.470 C 253.403 61.132,253.667 60.782,253.667 60.692 C 253.667 60.602,253.967 60.290,254.333 60.000 C 254.700 59.710,255.000 59.400,255.000 59.311 C 255.000 59.097,256.605 57.500,256.821 57.500 C 256.914 57.500,257.236 57.274,257.537 56.998 C 258.606 56.017,259.592 55.221,260.170 54.874 C 260.492 54.680,260.936 54.329,261.157 54.094 C 261.378 53.859,261.655 53.667,261.773 53.667 C 261.892 53.667,262.216 53.445,262.493 53.173 C 262.771 52.902,263.279 52.602,263.624 52.506 C 263.968 52.411,264.577 52.109,264.978 51.837 C 265.378 51.564,265.978 51.294,266.311 51.236 C 266.644 51.178,267.179 50.959,267.500 50.750 C 268.113 50.350,268.838 50.097,269.869 49.924 C 270.209 49.867,270.884 49.643,271.369 49.426 C 272.281 49.017,272.869 48.905,277.083 48.339 C 278.458 48.154,279.771 47.975,280.000 47.941 C 281.349 47.740,284.401 47.855,285.695 48.156 M55.438 61.527 C 56.173 61.883,56.170 61.799,56.126 83.186 L 56.083 103.570 55.517 103.952 C 54.619 104.557,50.698 104.529,49.789 103.911 L 49.167 103.488 49.167 82.864 C 49.167 60.164,49.097 61.657,50.175 61.378 C 50.996 61.165,54.920 61.277,55.438 61.527 M284.083 64.483 C 284.817 64.585,286.054 64.748,286.833 64.846 C 287.841 64.972,288.352 65.119,288.605 65.355 C 288.800 65.537,289.437 65.796,290.021 65.930 C 290.730 66.092,291.194 66.304,291.417 66.568 C 291.600 66.786,292.147 67.133,292.632 67.339 C 293.117 67.545,293.583 67.843,293.668 68.002 C 293.752 68.160,294.091 68.418,294.420 68.574 C 294.748 68.730,295.085 69.036,295.168 69.254 C 295.251 69.472,295.547 69.769,295.826 69.913 C 296.105 70.057,296.333 70.251,296.333 70.344 C 296.333 70.437,296.615 70.805,296.958 71.161 C 298.496 72.756,298.821 73.206,299.080 74.097 C 299.292 74.825,299.407 75.000,299.632 74.934 C 299.789 74.887,300.115 74.802,300.357 74.744 C 300.599 74.687,300.953 74.460,301.143 74.241 C 301.334 74.022,301.699 73.796,301.953 73.740 C 302.208 73.684,302.867 73.493,303.417 73.315 C 305.766 72.554,309.251 72.516,310.845 73.234 C 311.160 73.376,311.728 73.569,312.109 73.665 C 313.475 74.006,313.576 74.196,313.638 76.527 C 313.701 78.930,313.540 79.390,312.760 79.035 C 312.517 78.924,312.189 78.833,312.032 78.833 C 311.876 78.833,311.403 78.650,310.983 78.426 C 308.890 77.312,305.746 77.256,303.735 78.297 C 303.376 78.482,302.783 78.726,302.417 78.838 C 301.295 79.182,301.289 79.196,301.409 81.159 C 301.555 83.541,301.294 86.583,300.907 87.010 C 300.747 87.187,300.477 87.988,300.308 88.791 C 300.135 89.608,299.885 90.335,299.740 90.442 C 299.328 90.747,298.833 91.852,298.833 92.465 C 298.833 93.018,300.507 95.000,300.975 95.000 C 301.067 95.000,301.292 95.191,301.476 95.424 C 302.747 97.040,307.734 97.953,309.850 96.958 C 310.345 96.725,311.087 96.437,311.500 96.319 C 312.207 96.115,312.606 95.824,313.913 94.551 C 314.876 93.614,315.072 93.980,315.138 96.840 C 315.199 99.498,315.138 99.934,314.679 100.079 C 314.503 100.135,314.091 100.363,313.763 100.585 C 313.435 100.808,312.774 101.099,312.292 101.234 C 311.811 101.368,311.079 101.614,310.667 101.781 C 308.670 102.587,302.217 101.861,300.927 100.686 C 300.738 100.514,300.283 100.272,299.917 100.148 C 299.550 100.024,298.921 99.640,298.518 99.295 C 298.116 98.949,297.727 98.667,297.654 98.667 C 297.582 98.667,297.473 98.511,297.413 98.321 C 297.332 98.068,295.899 96.484,295.767 96.503 C 295.326 96.566,294.455 97.053,294.054 97.461 C 293.764 97.758,293.421 98.000,293.294 98.000 C 293.167 98.000,292.901 98.218,292.704 98.485 C 292.506 98.753,292.121 99.020,291.847 99.080 C 291.573 99.141,291.143 99.353,290.892 99.553 C 290.640 99.753,290.055 100.071,289.592 100.260 C 288.760 100.598,288.749 100.613,288.664 101.445 C 288.548 102.590,288.297 102.882,287.700 102.570 C 287.452 102.441,287.170 102.335,287.073 102.334 C 286.976 102.334,286.724 102.100,286.513 101.815 L 286.130 101.298 284.857 101.421 C 281.490 101.749,277.179 101.470,276.478 100.880 C 276.329 100.754,275.618 100.511,274.899 100.340 C 274.047 100.137,273.495 99.907,273.311 99.681 C 273.157 99.490,272.945 99.333,272.842 99.333 C 272.504 99.333,271.256 98.627,271.032 98.309 C 270.399 97.410,269.944 98.013,269.966 99.722 C 269.995 101.962,269.620 102.251,266.833 102.135 C 264.977 102.058,265.001 102.132,265.000 96.292 L 265.000 91.668 264.399 91.002 C 263.921 90.473,263.739 90.070,263.506 89.025 C 263.329 88.233,263.078 87.578,262.871 87.371 C 262.105 86.605,262.107 80.288,262.875 78.622 C 263.118 78.093,263.409 77.193,263.520 76.622 C 263.682 75.793,263.838 75.477,264.292 75.059 C 264.667 74.713,264.916 74.288,265.023 73.812 C 265.231 72.887,266.241 71.360,266.781 71.155 C 267.010 71.068,267.277 70.784,267.375 70.525 C 267.478 70.253,267.753 69.978,268.025 69.875 C 268.284 69.777,268.571 69.501,268.662 69.262 C 268.753 69.023,269.029 68.751,269.276 68.657 C 269.523 68.563,270.002 68.236,270.341 67.930 C 270.679 67.624,271.246 67.278,271.599 67.161 C 271.953 67.045,272.370 66.786,272.527 66.587 C 272.698 66.369,273.183 66.136,273.746 66.001 C 274.260 65.878,274.875 65.610,275.112 65.406 C 275.587 64.998,275.869 64.938,278.667 64.651 C 279.721 64.543,280.733 64.391,280.917 64.314 C 281.283 64.160,282.064 64.201,284.083 64.483 M66.153 73.746 C 66.298 74.019,66.645 74.469,66.925 74.746 C 67.205 75.023,67.563 75.456,67.721 75.708 C 67.879 75.960,68.112 76.167,68.240 76.167 C 68.368 76.167,68.630 76.421,68.823 76.733 C 69.015 77.044,69.359 77.421,69.586 77.570 C 69.814 77.719,70.000 77.923,70.000 78.023 C 70.000 78.122,70.563 78.752,71.250 79.422 C 71.938 80.092,72.500 80.707,72.500 80.789 C 72.500 80.870,72.729 81.106,73.008 81.313 C 73.288 81.520,73.586 81.872,73.671 82.095 C 73.756 82.318,73.889 82.500,73.967 82.500 C 74.045 82.500,74.616 83.081,75.235 83.792 C 75.855 84.502,77.141 85.908,78.093 86.917 C 79.045 87.925,79.997 89.013,80.209 89.333 C 80.986 90.511,82.452 90.161,82.152 88.869 C 81.932 87.921,81.962 74.501,82.185 73.817 C 82.509 72.828,82.844 72.667,84.576 72.667 C 87.356 72.667,87.167 71.527,87.164 88.286 C 87.163 95.875,87.106 102.165,87.039 102.266 C 86.573 102.961,85.290 102.571,84.964 101.635 C 84.874 101.377,84.740 101.167,84.666 101.167 C 84.591 101.167,84.159 100.698,83.705 100.125 C 83.252 99.552,81.933 98.108,80.776 96.917 C 79.618 95.725,78.670 94.702,78.669 94.642 C 78.668 94.583,78.404 94.304,78.083 94.022 C 77.762 93.741,77.500 93.446,77.500 93.368 C 77.500 93.290,77.181 92.921,76.792 92.548 C 75.626 91.432,75.000 90.758,75.000 90.619 C 75.000 90.547,74.494 89.972,73.875 89.341 C 73.256 88.710,72.412 87.806,72.000 87.333 C 71.587 86.859,70.950 86.151,70.583 85.760 C 70.217 85.368,69.787 84.868,69.628 84.649 L 69.338 84.250 69.003 84.643 C 68.676 85.026,68.667 85.258,68.667 92.940 C 68.667 102.875,68.784 102.512,65.663 102.240 C 63.667 102.065,63.838 103.501,63.831 86.876 C 63.825 70.761,63.737 71.723,65.132 72.713 C 65.548 73.008,66.007 73.473,66.153 73.746 M110.964 72.917 C 111.533 73.563,111.650 75.597,111.155 76.228 L 110.809 76.667 107.569 76.667 L 104.328 76.667 103.998 77.208 C 103.677 77.735,103.668 78.080,103.667 89.383 C 103.667 103.460,103.951 102.160,100.867 102.164 L 99.317 102.167 98.996 101.458 C 98.688 100.781,98.674 100.249,98.670 89.216 C 98.668 80.904,98.613 77.565,98.476 77.263 C 98.206 76.672,97.459 76.565,94.451 76.684 L 91.917 76.785 91.353 76.204 C 90.646 75.476,90.661 73.551,91.378 72.917 C 91.803 72.540,110.632 72.540,110.964 72.917 M132.439 72.797 C 133.165 73.973,133.209 75.569,132.533 76.245 L 132.066 76.711 126.880 76.679 C 120.653 76.640,120.611 76.645,120.262 77.520 C 119.870 78.499,119.885 83.091,120.282 83.671 C 120.737 84.336,120.724 84.334,125.320 84.323 L 129.723 84.313 130.235 84.825 C 130.725 85.315,130.748 85.400,130.774 86.840 L 130.801 88.343 130.157 88.672 C 129.564 88.974,129.162 89.000,125.027 89.000 C 119.491 89.000,120.083 88.498,120.083 93.186 C 120.083 97.943,119.281 97.405,126.462 97.467 C 133.394 97.527,133.000 97.402,133.000 99.532 C 133.000 100.635,132.936 100.942,132.590 101.490 L 132.179 102.140 124.381 102.197 C 119.662 102.231,116.430 102.190,116.195 102.094 C 115.141 101.661,115.167 102.028,115.167 87.510 C 115.167 72.824,115.136 73.248,116.246 72.804 C 116.716 72.617,132.324 72.609,132.439 72.797 M150.594 73.370 C 151.517 73.700,152.483 74.146,152.741 74.360 C 154.209 75.580,154.836 76.254,155.016 76.807 C 155.126 77.142,155.390 77.626,155.603 77.883 C 155.817 78.139,156.073 78.664,156.173 79.049 C 156.273 79.435,156.424 80.012,156.510 80.333 C 156.959 82.024,156.485 86.172,155.710 87.323 C 155.552 87.558,155.301 88.013,155.153 88.333 C 154.880 88.925,153.871 89.909,152.762 90.667 C 151.602 91.459,151.333 91.692,151.333 91.905 C 151.333 92.097,152.887 94.135,154.414 95.945 C 154.736 96.327,155.000 96.723,155.000 96.826 C 155.000 96.928,155.262 97.274,155.583 97.594 C 155.904 97.915,156.167 98.284,156.167 98.413 C 156.167 98.542,156.576 99.090,157.077 99.631 C 158.913 101.614,158.533 102.320,155.634 102.315 C 154.207 102.312,152.500 101.498,152.500 100.820 C 152.500 100.736,152.238 100.389,151.917 100.049 C 151.596 99.709,151.289 99.289,151.234 99.115 C 151.178 98.941,150.878 98.528,150.567 98.198 C 150.255 97.868,150.000 97.501,150.000 97.382 C 150.000 97.264,149.748 96.886,149.441 96.542 C 149.133 96.198,148.784 95.729,148.664 95.500 C 148.545 95.271,148.307 94.984,148.135 94.862 C 147.963 94.740,147.662 94.299,147.466 93.882 C 146.650 92.146,144.089 91.574,143.128 92.913 C 143.060 93.007,143.004 94.829,143.003 96.962 C 143.000 100.815,142.997 100.844,142.581 101.503 L 142.162 102.167 140.696 102.167 C 137.951 102.167,138.167 103.419,138.167 87.501 C 138.167 73.327,138.167 73.316,138.943 72.849 C 139.154 72.722,140.752 72.681,144.083 72.717 L 148.917 72.769 150.594 73.370 M173.083 73.167 C 173.606 73.442,174.133 73.667,174.254 73.667 C 174.375 73.667,174.812 73.924,175.224 74.239 C 175.637 74.554,176.200 74.928,176.477 75.071 C 177.484 75.592,177.386 76.759,176.275 77.473 C 175.894 77.717,175.371 78.133,175.111 78.397 C 174.471 79.047,173.221 78.946,172.429 78.179 C 171.360 77.144,169.772 77.338,168.702 78.636 C 167.626 79.941,168.056 80.856,171.013 83.558 C 171.968 84.431,173.612 85.981,174.667 87.003 C 175.721 88.024,176.701 88.948,176.844 89.055 C 179.777 91.246,179.612 97.439,176.558 99.787 C 176.227 100.042,175.722 100.443,175.436 100.678 C 173.078 102.620,167.356 102.518,165.049 100.492 C 164.741 100.222,164.410 100.000,164.313 100.000 C 163.752 100.000,162.366 98.180,162.494 97.612 C 162.670 96.830,162.763 96.709,163.470 96.348 C 163.807 96.175,164.375 95.801,164.731 95.517 C 165.555 94.860,165.791 94.868,166.595 95.583 C 166.955 95.904,167.312 96.166,167.388 96.167 C 167.465 96.167,167.943 96.443,168.451 96.780 C 169.627 97.561,171.150 97.675,171.946 97.042 C 172.205 96.837,172.686 96.522,173.015 96.344 C 173.948 95.839,174.330 94.682,173.981 93.417 C 173.818 92.824,169.914 88.667,169.522 88.667 C 169.468 88.667,169.146 88.385,168.805 88.042 C 168.465 87.698,168.070 87.304,167.927 87.167 C 167.784 87.029,167.535 86.783,167.375 86.620 C 167.215 86.457,166.615 85.886,166.042 85.351 C 165.469 84.817,165.000 84.322,165.000 84.252 C 165.000 84.181,164.742 83.839,164.428 83.490 C 162.555 81.418,162.935 76.953,165.141 75.105 C 165.265 75.001,165.635 74.671,165.963 74.371 C 166.291 74.070,166.753 73.777,166.988 73.718 C 167.224 73.659,167.867 73.399,168.417 73.139 C 169.885 72.446,171.734 72.457,173.083 73.167 M200.824 72.824 C 201.482 73.240,201.702 75.531,201.151 76.232 L 200.803 76.675 195.026 76.660 L 189.250 76.645 188.959 77.114 C 188.506 77.846,188.531 83.398,188.991 83.996 L 189.308 84.409 193.881 84.355 L 198.453 84.301 198.822 84.899 C 199.161 85.447,199.182 85.623,199.074 87.009 C 198.906 89.148,199.216 89.034,193.687 88.984 C 190.201 88.952,189.128 88.992,188.926 89.159 C 188.447 89.556,188.548 96.898,189.037 97.241 C 189.355 97.463,190.225 97.500,195.178 97.500 C 202.070 97.500,201.568 97.331,201.472 99.615 C 201.436 100.460,201.304 101.296,201.161 101.583 L 200.912 102.083 192.626 102.127 L 184.339 102.170 184.083 101.556 C 183.857 101.016,183.831 99.260,183.871 87.163 C 183.920 72.463,183.891 72.944,184.720 72.783 C 185.466 72.638,200.590 72.676,200.824 72.824 M258.747 72.997 C 259.029 73.308,259.050 74.132,259.104 87.092 C 259.173 103.651,259.366 102.317,256.899 102.317 C 254.677 102.317,254.917 104.105,254.917 87.500 C 254.917 70.837,254.659 72.667,257.006 72.667 C 258.233 72.667,258.493 72.716,258.747 72.997 M143.542 77.832 L 143.000 78.162 143.000 82.715 L 143.000 87.268 143.575 87.826 L 144.151 88.383 146.117 88.292 C 147.431 88.232,148.304 88.106,148.750 87.915 C 149.117 87.757,149.693 87.506,150.032 87.356 C 152.298 86.351,153.185 82.489,151.672 80.206 C 151.394 79.786,151.167 79.342,151.167 79.218 C 151.167 79.094,150.960 78.905,150.708 78.798 C 150.456 78.691,150.098 78.470,149.912 78.307 C 148.925 77.443,144.696 77.128,143.542 77.832 M352.038 94.128 C 352.080 94.290,352.057 94.571,351.986 94.753 C 351.888 95.005,351.854 94.934,351.845 94.458 C 351.832 93.789,351.913 93.650,352.038 94.128 M236.585 96.501 C 237.721 97.203,237.849 99.108,236.922 101.509 C 236.604 102.332,236.293 103.392,236.230 103.863 C 236.032 105.362,234.614 106.583,234.058 105.735 C 233.791 105.328,233.793 105.175,234.106 102.500 C 234.191 101.772,234.174 101.738,233.528 101.333 C 231.735 100.210,231.788 96.703,233.607 96.196 C 234.475 95.954,235.943 96.104,236.585 96.501 M323.969 97.470 C 325.678 98.976,324.998 101.249,322.561 102.175 C 321.059 102.746,318.895 100.363,319.450 98.750 C 320.236 96.468,322.200 95.911,323.969 97.470 " stroke="none" fill="#fbfbfb" fill-rule="evenodd"></path><path id="path3" d="M280.917 64.314 C 280.733 64.391,279.721 64.543,278.667 64.651 C 275.869 64.938,275.587 64.998,275.112 65.406 C 274.875 65.610,274.260 65.878,273.746 66.001 C 273.183 66.136,272.698 66.369,272.527 66.587 C 272.370 66.786,271.953 67.045,271.599 67.161 C 271.246 67.278,270.679 67.624,270.341 67.930 C 270.002 68.236,269.523 68.563,269.276 68.657 C 269.029 68.751,268.753 69.023,268.662 69.262 C 268.571 69.501,268.284 69.777,268.025 69.875 C 267.753 69.978,267.478 70.253,267.375 70.525 C 267.277 70.784,267.010 71.068,266.781 71.155 C 266.241 71.360,265.231 72.887,265.023 73.812 C 264.916 74.288,264.667 74.713,264.292 75.059 C 263.838 75.477,263.682 75.793,263.520 76.622 C 263.409 77.193,263.118 78.093,262.875 78.622 C 262.107 80.288,262.105 86.605,262.871 87.371 C 263.078 87.578,263.329 88.233,263.506 89.025 C 263.739 90.070,263.921 90.473,264.399 91.002 L 265.000 91.668 265.000 96.292 C 265.001 102.132,264.977 102.058,266.833 102.135 C 269.620 102.251,269.995 101.962,269.966 99.722 C 269.944 98.013,270.399 97.410,271.032 98.309 C 271.256 98.627,272.504 99.333,272.842 99.333 C 272.945 99.333,273.157 99.490,273.311 99.681 C 273.495 99.907,274.047 100.137,274.899 100.340 C 275.618 100.511,276.329 100.754,276.478 100.880 C 277.179 101.470,281.490 101.749,284.857 101.421 L 286.130 101.298 286.513 101.815 C 286.724 102.100,286.976 102.334,287.073 102.334 C 287.170 102.335,287.452 102.441,287.700 102.570 C 288.297 102.882,288.548 102.590,288.664 101.445 C 288.749 100.613,288.760 100.598,289.592 100.260 C 290.055 100.071,290.640 99.753,290.892 99.553 C 291.143 99.353,291.573 99.141,291.847 99.080 C 292.121 99.020,292.506 98.753,292.704 98.485 C 292.901 98.218,293.167 98.000,293.294 98.000 C 293.421 98.000,293.764 97.758,294.054 97.461 C 294.455 97.053,295.326 96.566,295.767 96.503 C 295.899 96.484,297.332 98.068,297.413 98.321 C 297.473 98.511,297.582 98.667,297.654 98.667 C 297.727 98.667,298.116 98.949,298.518 99.295 C 298.921 99.640,299.550 100.024,299.917 100.148 C 300.283 100.272,300.738 100.514,300.927 100.686 C 302.217 101.861,308.670 102.587,310.667 101.781 C 311.079 101.614,311.811 101.368,312.292 101.234 C 312.774 101.099,313.435 100.808,313.763 100.585 C 314.091 100.363,314.503 100.135,314.679 100.079 C 315.138 99.934,315.199 99.498,315.138 96.840 C 315.072 93.980,314.876 93.614,313.913 94.551 C 312.606 95.824,312.207 96.115,311.500 96.319 C 311.087 96.437,310.345 96.725,309.850 96.958 C 307.734 97.953,302.747 97.040,301.476 95.424 C 301.292 95.191,301.067 95.000,300.975 95.000 C 300.507 95.000,298.833 93.018,298.833 92.465 C 298.833 91.852,299.328 90.747,299.740 90.442 C 299.885 90.335,300.135 89.608,300.308 88.791 C 300.477 87.988,300.747 87.187,300.907 87.010 C 301.294 86.583,301.555 83.541,301.409 81.159 C 301.289 79.196,301.295 79.182,302.417 78.838 C 302.783 78.726,303.376 78.482,303.735 78.297 C 305.746 77.256,308.890 77.312,310.983 78.426 C 311.403 78.650,311.876 78.833,312.032 78.833 C 312.189 78.833,312.517 78.924,312.760 79.035 C 313.540 79.390,313.701 78.930,313.638 76.527 C 313.576 74.196,313.475 74.006,312.109 73.665 C 311.728 73.569,311.160 73.376,310.845 73.234 C 309.251 72.516,305.766 72.554,303.417 73.315 C 302.867 73.493,302.208 73.684,301.953 73.740 C 301.699 73.796,301.334 74.022,301.143 74.241 C 300.953 74.460,300.599 74.687,300.357 74.744 C 300.115 74.802,299.789 74.887,299.632 74.934 C 299.407 75.000,299.292 74.825,299.080 74.097 C 298.821 73.206,298.496 72.756,296.958 71.161 C 296.615 70.805,296.333 70.437,296.333 70.344 C 296.333 70.251,296.105 70.057,295.826 69.913 C 295.547 69.769,295.251 69.472,295.168 69.254 C 295.085 69.036,294.748 68.730,294.420 68.574 C 294.091 68.418,293.752 68.160,293.668 68.002 C 293.583 67.843,293.117 67.545,292.632 67.339 C 292.147 67.133,291.600 66.786,291.417 66.568 C 291.194 66.304,290.730 66.092,290.021 65.930 C 289.437 65.796,288.800 65.537,288.605 65.355 C 288.352 65.119,287.841 64.972,286.833 64.846 C 286.054 64.748,284.817 64.585,284.083 64.483 C 282.064 64.201,281.283 64.160,280.917 64.314 M284.833 64.987 C 286.154 65.100,286.897 65.263,287.861 65.652 C 288.564 65.935,289.290 66.167,289.475 66.167 C 290.014 66.167,290.677 66.474,291.282 67.006 C 291.592 67.278,291.979 67.500,292.143 67.500 C 292.308 67.500,292.624 67.695,292.846 67.933 C 293.068 68.170,293.475 68.480,293.750 68.620 C 294.370 68.936,295.641 70.203,296.934 71.793 C 298.503 73.723,298.616 73.889,298.734 74.425 C 298.795 74.704,299.026 75.128,299.248 75.367 L 299.651 75.802 299.250 76.234 C 299.030 76.472,298.703 76.667,298.524 76.667 C 298.328 76.667,298.059 76.904,297.846 77.267 C 297.651 77.597,297.350 77.904,297.176 77.949 C 297.003 77.995,296.769 78.253,296.657 78.524 C 296.545 78.794,296.257 79.118,296.018 79.242 C 295.699 79.409,295.498 79.741,295.261 80.493 C 295.084 81.057,294.826 81.581,294.689 81.657 C 294.049 82.015,293.481 87.937,293.848 90.417 C 294.173 92.604,294.366 93.303,294.669 93.382 C 294.859 93.432,295.060 93.787,295.232 94.380 C 295.606 95.665,295.583 95.777,294.854 96.237 C 294.499 96.461,294.065 96.827,293.889 97.050 C 293.714 97.273,293.407 97.507,293.206 97.571 C 293.006 97.634,292.700 97.866,292.527 98.087 C 292.354 98.307,291.839 98.634,291.382 98.814 C 290.926 98.994,290.283 99.324,289.954 99.548 C 289.155 100.089,288.034 100.272,287.679 99.917 C 287.377 99.615,287.185 76.404,287.474 75.050 C 287.715 73.915,287.270 73.617,285.580 73.786 L 284.275 73.917 284.317 82.256 C 284.361 90.996,284.334 91.372,283.638 91.593 C 282.792 91.861,281.145 90.707,280.922 89.690 C 280.840 89.317,280.685 89.136,280.386 89.061 C 280.134 88.998,279.882 88.758,279.759 88.464 C 279.645 88.194,279.375 87.885,279.158 87.777 C 278.942 87.669,278.722 87.394,278.669 87.165 C 278.610 86.907,278.370 86.659,278.032 86.509 C 277.710 86.367,277.449 86.106,277.390 85.869 C 277.334 85.648,277.066 85.332,276.793 85.166 C 276.520 85.000,276.209 84.689,276.102 84.474 C 275.995 84.259,275.703 83.985,275.453 83.866 C 275.204 83.746,274.998 83.559,274.994 83.449 C 274.987 83.185,274.409 82.500,274.193 82.500 C 274.099 82.500,273.854 82.256,273.648 81.958 C 272.825 80.767,271.597 79.333,271.400 79.333 C 271.285 79.333,271.060 79.037,270.900 78.675 C 270.716 78.257,270.483 77.998,270.263 77.966 C 270.065 77.938,269.810 77.689,269.667 77.385 C 269.529 77.093,269.253 76.811,269.052 76.760 C 268.835 76.704,268.607 76.443,268.489 76.115 C 268.379 75.812,268.067 75.437,267.796 75.281 C 267.524 75.125,267.262 74.845,267.213 74.659 C 267.164 74.472,266.909 74.209,266.645 74.072 C 265.840 73.656,266.006 72.812,267.166 71.417 C 267.967 70.453,269.589 68.980,270.206 68.656 C 270.548 68.476,270.945 68.151,271.087 67.934 C 271.230 67.717,271.567 67.495,271.837 67.441 C 272.107 67.387,272.712 67.078,273.182 66.755 C 273.653 66.431,274.185 66.167,274.366 66.167 C 274.547 66.167,275.269 65.933,275.972 65.648 C 277.291 65.113,280.815 64.637,282.417 64.778 C 282.783 64.811,283.871 64.905,284.833 64.987 M64.101 72.480 C 63.709 72.914,63.687 100.609,64.078 101.545 C 64.318 102.119,64.327 102.123,65.663 102.240 C 68.784 102.512,68.667 102.875,68.667 92.940 C 68.667 85.258,68.676 85.026,69.003 84.643 L 69.338 84.250 69.628 84.649 C 69.787 84.868,70.217 85.368,70.583 85.760 C 70.950 86.151,71.587 86.859,72.000 87.333 C 72.412 87.806,73.256 88.710,73.875 89.341 C 74.494 89.972,75.000 90.547,75.000 90.619 C 75.000 90.758,75.626 91.432,76.792 92.548 C 77.181 92.921,77.500 93.290,77.500 93.368 C 77.500 93.446,77.762 93.741,78.083 94.022 C 78.404 94.304,78.668 94.583,78.669 94.642 C 78.670 94.702,79.618 95.725,80.776 96.917 C 81.933 98.108,83.252 99.552,83.705 100.125 C 84.159 100.698,84.591 101.167,84.666 101.167 C 84.740 101.167,84.874 101.377,84.964 101.635 C 85.290 102.571,86.573 102.961,87.039 102.266 C 87.106 102.165,87.163 95.875,87.164 88.286 C 87.167 71.527,87.356 72.667,84.576 72.667 C 82.844 72.667,82.509 72.828,82.185 73.817 C 81.962 74.501,81.932 87.921,82.152 88.869 C 82.452 90.161,80.986 90.511,80.209 89.333 C 79.997 89.013,79.045 87.925,78.093 86.917 C 77.141 85.908,75.855 84.502,75.235 83.792 C 74.616 83.081,74.045 82.500,73.967 82.500 C 73.889 82.500,73.756 82.318,73.671 82.095 C 73.586 81.872,73.288 81.520,73.008 81.313 C 72.729 81.106,72.500 80.870,72.500 80.789 C 72.500 80.707,71.938 80.092,71.250 79.422 C 70.563 78.752,70.000 78.122,70.000 78.023 C 70.000 77.923,69.814 77.719,69.586 77.570 C 69.359 77.421,69.015 77.044,68.823 76.733 C 68.630 76.421,68.368 76.167,68.240 76.167 C 68.112 76.167,67.879 75.960,67.721 75.708 C 67.563 75.456,67.205 75.023,66.925 74.746 C 66.645 74.469,66.298 74.019,66.153 73.746 C 65.692 72.881,64.438 72.108,64.101 72.480 M91.378 72.917 C 90.661 73.551,90.646 75.476,91.353 76.204 L 91.917 76.785 94.451 76.684 C 97.459 76.565,98.206 76.672,98.476 77.263 C 98.613 77.565,98.668 80.904,98.670 89.216 C 98.674 100.249,98.688 100.781,98.996 101.458 L 99.317 102.167 100.867 102.164 C 103.951 102.160,103.667 103.460,103.667 89.383 C 103.668 78.080,103.677 77.735,103.998 77.208 L 104.328 76.667 107.569 76.667 L 110.809 76.667 111.155 76.228 C 111.650 75.597,111.533 73.563,110.964 72.917 C 110.632 72.540,91.803 72.540,91.378 72.917 M116.246 72.804 C 115.136 73.248,115.167 72.824,115.167 87.510 C 115.167 102.028,115.141 101.661,116.195 102.094 C 116.430 102.190,119.662 102.231,124.381 102.197 L 132.179 102.140 132.590 101.490 C 132.936 100.942,133.000 100.635,133.000 99.532 C 133.000 97.402,133.394 97.527,126.462 97.467 C 119.281 97.405,120.083 97.943,120.083 93.186 C 120.083 88.498,119.491 89.000,125.027 89.000 C 129.162 89.000,129.564 88.974,130.157 88.672 L 130.801 88.343 130.774 86.840 C 130.748 85.400,130.725 85.315,130.235 84.825 L 129.723 84.313 125.320 84.323 C 120.724 84.334,120.737 84.336,120.282 83.671 C 119.885 83.091,119.870 78.499,120.262 77.520 C 120.611 76.645,120.653 76.640,126.880 76.679 L 132.066 76.711 132.533 76.245 C 133.209 75.569,133.165 73.973,132.439 72.797 C 132.324 72.609,116.716 72.617,116.246 72.804 M138.943 72.849 C 138.167 73.316,138.167 73.327,138.167 87.501 C 138.167 103.419,137.951 102.167,140.696 102.167 L 142.162 102.167 142.581 101.503 C 142.997 100.844,143.000 100.815,143.003 96.962 C 143.004 94.829,143.060 93.007,143.128 92.913 C 144.089 91.574,146.650 92.146,147.466 93.882 C 147.662 94.299,147.963 94.740,148.135 94.862 C 148.307 94.984,148.545 95.271,148.664 95.500 C 148.784 95.729,149.133 96.198,149.441 96.542 C 149.748 96.886,150.000 97.264,150.000 97.382 C 150.000 97.501,150.255 97.868,150.567 98.198 C 150.878 98.528,151.178 98.941,151.234 99.115 C 151.289 99.289,151.596 99.709,151.917 100.049 C 152.238 100.389,152.500 100.736,152.500 100.820 C 152.500 101.498,154.207 102.312,155.634 102.315 C 158.533 102.320,158.913 101.614,157.077 99.631 C 156.576 99.090,156.167 98.542,156.167 98.413 C 156.167 98.284,155.904 97.915,155.583 97.594 C 155.262 97.274,155.000 96.928,155.000 96.826 C 155.000 96.723,154.736 96.327,154.414 95.945 C 152.887 94.135,151.333 92.097,151.333 91.905 C 151.333 91.692,151.602 91.459,152.762 90.667 C 153.871 89.909,154.880 88.925,155.153 88.333 C 155.301 88.013,155.552 87.558,155.710 87.323 C 156.485 86.172,156.959 82.024,156.510 80.333 C 156.424 80.012,156.273 79.435,156.173 79.049 C 156.073 78.664,155.817 78.139,155.603 77.883 C 155.390 77.626,155.126 77.142,155.016 76.807 C 154.836 76.254,154.209 75.580,152.741 74.360 C 152.483 74.146,151.517 73.700,150.594 73.370 L 148.917 72.769 144.083 72.717 C 140.752 72.681,139.154 72.722,138.943 72.849 M168.417 73.139 C 167.867 73.399,167.224 73.659,166.988 73.718 C 166.753 73.777,166.291 74.070,165.963 74.371 C 165.635 74.671,165.265 75.001,165.141 75.105 C 162.935 76.953,162.555 81.418,164.428 83.490 C 164.742 83.839,165.000 84.181,165.000 84.252 C 165.000 84.322,165.469 84.817,166.042 85.351 C 166.615 85.886,167.215 86.457,167.375 86.620 C 167.535 86.783,167.784 87.029,167.927 87.167 C 168.070 87.304,168.465 87.698,168.805 88.042 C 169.146 88.385,169.468 88.667,169.522 88.667 C 169.914 88.667,173.818 92.824,173.981 93.417 C 174.330 94.682,173.948 95.839,173.015 96.344 C 172.686 96.522,172.205 96.837,171.946 97.042 C 171.150 97.675,169.627 97.561,168.451 96.780 C 167.943 96.443,167.465 96.167,167.388 96.167 C 167.312 96.166,166.955 95.904,166.595 95.583 C 165.791 94.868,165.555 94.860,164.731 95.517 C 164.375 95.801,163.807 96.175,163.470 96.348 C 162.763 96.709,162.670 96.830,162.494 97.612 C 162.366 98.180,163.752 100.000,164.313 100.000 C 164.410 100.000,164.741 100.222,165.049 100.492 C 167.356 102.518,173.078 102.620,175.436 100.678 C 175.722 100.443,176.227 100.042,176.558 99.787 C 179.612 97.439,179.777 91.246,176.844 89.055 C 176.701 88.948,175.721 88.024,174.667 87.003 C 173.612 85.981,171.968 84.431,171.013 83.558 C 168.056 80.856,167.626 79.941,168.702 78.636 C 169.772 77.338,171.360 77.144,172.429 78.179 C 173.221 78.946,174.471 79.047,175.111 78.397 C 175.371 78.133,175.894 77.717,176.275 77.473 C 177.386 76.759,177.484 75.592,176.477 75.071 C 176.200 74.928,175.637 74.554,175.224 74.239 C 174.812 73.924,174.375 73.667,174.254 73.667 C 174.133 73.667,173.606 73.442,173.083 73.167 C 171.734 72.457,169.885 72.446,168.417 73.139 M184.720 72.783 C 183.891 72.944,183.920 72.463,183.871 87.163 C 183.831 99.260,183.857 101.016,184.083 101.556 L 184.339 102.170 192.626 102.127 L 200.912 102.083 201.161 101.583 C 201.304 101.296,201.436 100.460,201.472 99.615 C 201.568 97.331,202.070 97.500,195.178 97.500 C 190.225 97.500,189.355 97.463,189.037 97.241 C 188.548 96.898,188.447 89.556,188.926 89.159 C 189.128 88.992,190.201 88.952,193.687 88.984 C 199.216 89.034,198.906 89.148,199.074 87.009 C 199.182 85.623,199.161 85.447,198.822 84.899 L 198.453 84.301 193.881 84.355 L 189.308 84.409 188.991 83.996 C 188.531 83.398,188.506 77.846,188.959 77.114 L 189.250 76.645 195.026 76.660 L 200.803 76.675 201.151 76.232 C 201.702 75.531,201.482 73.240,200.824 72.824 C 200.590 72.676,185.466 72.638,184.720 72.783 M218.058 72.843 C 217.495 72.916,216.729 73.132,216.357 73.321 C 215.513 73.752,214.251 73.788,214.028 73.389 C 213.899 73.159,213.852 73.201,213.757 73.634 C 213.638 74.175,212.821 75.000,212.404 75.000 C 212.274 75.000,211.877 75.262,211.522 75.583 C 211.167 75.904,210.712 76.167,210.511 76.167 C 210.024 76.167,209.500 76.459,209.500 76.730 C 209.500 76.850,209.352 77.082,209.171 77.246 C 208.990 77.410,208.793 77.703,208.732 77.897 C 208.672 78.091,208.370 78.497,208.061 78.800 C 207.753 79.102,207.500 79.467,207.500 79.611 C 207.500 79.754,207.241 80.225,206.924 80.657 C 206.607 81.088,206.273 81.773,206.181 82.179 C 206.089 82.585,205.850 83.367,205.650 83.917 C 205.003 85.697,204.995 89.024,205.634 90.922 C 205.911 91.744,206.186 92.642,206.245 92.917 C 206.304 93.192,206.600 93.794,206.903 94.254 C 207.206 94.715,207.506 95.257,207.570 95.458 C 207.634 95.660,207.907 95.982,208.177 96.174 C 208.446 96.366,208.667 96.612,208.667 96.720 C 208.667 96.978,210.261 98.667,210.504 98.667 C 210.607 98.667,210.960 98.967,211.290 99.333 C 211.619 99.700,212.011 100.000,212.161 100.000 C 212.312 100.000,212.804 100.234,213.256 100.521 C 213.708 100.808,214.529 101.155,215.081 101.293 C 215.632 101.431,216.300 101.654,216.566 101.788 C 217.558 102.292,221.330 102.273,223.250 101.754 C 224.167 101.507,225.145 101.247,225.424 101.177 C 226.331 100.951,227.551 99.953,228.035 99.042 L 228.487 98.193 228.292 96.358 L 228.097 94.524 227.542 94.420 C 227.045 94.327,226.880 94.409,225.952 95.214 C 225.351 95.736,224.567 96.234,224.083 96.401 C 220.837 97.522,220.782 97.535,219.567 97.448 C 218.780 97.391,217.995 97.197,217.221 96.868 C 216.580 96.595,215.816 96.319,215.522 96.255 C 214.268 95.979,212.682 93.980,212.660 92.647 C 212.654 92.286,212.633 92.298,212.427 92.772 C 212.005 93.741,211.365 93.180,211.073 91.583 C 211.006 91.217,210.729 90.359,210.458 89.677 C 210.004 88.539,209.969 88.307,210.032 86.844 C 210.103 85.183,210.051 85.345,211.483 82.361 C 211.890 81.514,212.310 81.491,212.729 82.292 C 212.939 82.691,212.953 82.667,213.048 81.751 C 213.161 80.651,213.960 79.527,215.000 79.003 C 217.278 77.856,218.416 77.503,219.833 77.505 C 221.086 77.506,222.888 77.909,223.451 78.314 C 224.289 78.917,225.633 79.040,225.958 78.544 C 226.322 77.988,226.037 74.668,225.581 74.165 C 224.623 73.106,220.968 72.463,218.058 72.843 M255.240 72.903 C 254.924 73.134,254.917 73.477,254.917 87.500 C 254.917 104.105,254.677 102.317,256.899 102.317 C 259.366 102.317,259.173 103.651,259.104 87.092 C 259.037 71.024,259.276 72.667,257.006 72.667 C 256.023 72.667,255.461 72.742,255.240 72.903 M224.500 75.835 C 224.500 77.294,224.491 77.330,224.167 77.128 C 223.880 76.949,223.833 76.739,223.833 75.627 C 223.833 74.444,223.862 74.333,224.167 74.333 C 224.475 74.333,224.500 74.444,224.500 75.835 M266.159 83.448 C 266.167 91.590,266.161 91.640,265.306 90.603 C 265.033 90.271,264.704 90.000,264.575 90.000 C 264.277 90.000,263.894 89.261,263.751 88.411 C 263.690 88.047,263.458 87.280,263.237 86.707 C 262.736 85.412,262.636 81.129,263.081 80.064 C 263.216 79.739,263.448 78.823,263.594 78.028 C 263.886 76.448,264.179 75.833,264.641 75.833 C 264.807 75.833,265.123 75.640,265.345 75.404 L 265.749 74.974 265.950 75.445 C 266.097 75.790,266.154 77.948,266.159 83.448 M148.849 77.756 C 149.248 77.896,149.726 78.144,149.912 78.307 C 150.098 78.470,150.456 78.691,150.708 78.798 C 150.960 78.905,151.167 79.094,151.167 79.218 C 151.167 79.342,151.394 79.786,151.672 80.206 C 153.185 82.489,152.298 86.351,150.032 87.356 C 149.693 87.506,149.117 87.757,148.750 87.915 C 148.304 88.106,147.431 88.232,146.117 88.292 L 144.151 88.383 143.575 87.826 L 143.000 87.268 143.000 82.715 L 143.000 78.162 143.542 77.832 C 144.250 77.400,147.700 77.350,148.849 77.756 M300.628 80.396 C 301.420 81.165,300.499 88.594,299.463 89.796 C 299.327 89.954,299.005 90.477,298.748 90.958 C 298.491 91.440,298.196 91.833,298.094 91.833 C 297.644 91.833,297.163 91.284,297.063 90.658 C 297.002 90.279,296.864 90.000,296.739 90.000 C 296.165 90.000,296.064 85.621,296.627 85.165 C 296.809 85.018,297.032 84.465,297.167 83.832 C 297.337 83.028,297.516 82.644,297.865 82.338 C 298.122 82.111,298.333 81.818,298.333 81.686 C 298.333 80.459,299.828 79.619,300.628 80.396 M271.333 83.667 C 271.517 83.850,271.667 84.114,271.667 84.254 C 271.667 84.394,271.858 84.581,272.091 84.670 C 272.339 84.764,272.619 85.077,272.763 85.422 C 272.898 85.746,273.176 86.076,273.380 86.155 C 273.583 86.234,273.893 86.569,274.068 86.899 C 274.257 87.257,274.510 87.500,274.693 87.500 C 274.862 87.500,275.000 87.616,275.000 87.758 C 275.000 87.900,275.544 88.554,276.208 89.211 C 276.873 89.868,277.612 90.732,277.851 91.132 C 278.090 91.531,278.521 92.001,278.810 92.177 C 279.098 92.352,279.333 92.595,279.333 92.716 C 279.333 92.838,279.562 93.106,279.842 93.313 C 280.121 93.520,280.419 93.872,280.504 94.095 C 280.589 94.318,280.748 94.500,280.858 94.500 C 281.176 94.500,281.667 95.023,281.667 95.362 C 281.667 95.553,281.893 95.780,282.255 95.953 C 282.587 96.111,282.884 96.396,282.937 96.606 C 282.991 96.819,283.234 97.049,283.508 97.144 C 283.848 97.263,284.025 97.469,284.127 97.864 C 284.224 98.241,284.382 98.433,284.623 98.468 C 285.131 98.543,285.297 98.814,285.425 99.777 L 285.538 100.628 284.894 100.856 C 283.753 101.259,278.619 101.163,277.582 100.720 C 277.124 100.524,276.276 100.271,275.696 100.158 C 275.116 100.044,274.390 99.781,274.083 99.572 C 273.775 99.363,273.194 99.047,272.791 98.869 C 272.389 98.691,271.735 98.310,271.338 98.022 C 270.941 97.735,270.455 97.500,270.258 97.500 C 269.843 97.500,269.500 97.208,269.500 96.855 C 269.500 96.720,269.369 96.465,269.208 96.288 C 268.948 96.000,268.906 95.382,268.816 90.441 C 268.760 87.403,268.659 84.718,268.591 84.475 C 268.304 83.450,270.477 82.810,271.333 83.667 M227.000 97.500 C 227.000 99.389,226.981 99.500,226.667 99.500 C 226.237 99.500,226.175 97.342,226.582 96.561 C 226.719 96.298,226.832 95.952,226.832 95.792 C 226.833 95.631,226.871 95.500,226.917 95.500 C 226.963 95.500,227.000 96.400,227.000 97.500 M233.607 96.196 C 231.788 96.703,231.735 100.210,233.528 101.333 C 234.174 101.738,234.191 101.772,234.106 102.500 C 233.793 105.175,233.791 105.328,234.058 105.735 C 234.614 106.583,236.032 105.362,236.230 103.863 C 236.293 103.392,236.604 102.332,236.922 101.509 C 238.408 97.661,236.918 95.272,233.607 96.196 M320.953 96.962 C 318.642 98.547,319.062 101.590,321.683 102.248 C 322.497 102.452,324.414 101.178,324.840 100.150 C 325.706 98.060,322.813 95.688,320.953 96.962 " stroke="none" fill="#a1a1a2" fill-rule="evenodd"></path><path id="path4" d="M279.500 64.925 C 277.675 65.091,277.009 65.227,275.972 65.648 C 275.269 65.933,274.547 66.167,274.366 66.167 C 274.185 66.167,273.653 66.431,273.182 66.755 C 272.712 67.078,272.107 67.387,271.837 67.441 C 271.567 67.495,271.230 67.717,271.087 67.934 C 270.945 68.151,270.548 68.476,270.206 68.656 C 269.589 68.980,267.967 70.453,267.166 71.417 C 266.006 72.812,265.840 73.656,266.645 74.072 C 266.909 74.209,267.164 74.472,267.213 74.659 C 267.262 74.845,267.524 75.125,267.796 75.281 C 268.067 75.437,268.379 75.812,268.489 76.115 C 268.607 76.443,268.835 76.704,269.052 76.760 C 269.253 76.811,269.529 77.093,269.667 77.385 C 269.810 77.689,270.065 77.938,270.263 77.966 C 270.483 77.998,270.716 78.257,270.900 78.675 C 271.060 79.037,271.285 79.333,271.400 79.333 C 271.597 79.333,272.825 80.767,273.648 81.958 C 273.854 82.256,274.099 82.500,274.193 82.500 C 274.409 82.500,274.987 83.185,274.994 83.449 C 274.998 83.559,275.204 83.746,275.453 83.866 C 275.703 83.985,275.995 84.259,276.102 84.474 C 276.209 84.689,276.520 85.000,276.793 85.166 C 277.066 85.332,277.334 85.648,277.390 85.869 C 277.449 86.106,277.710 86.367,278.032 86.509 C 278.370 86.659,278.610 86.907,278.669 87.165 C 278.722 87.394,278.942 87.669,279.158 87.777 C 279.375 87.885,279.645 88.194,279.759 88.464 C 279.882 88.758,280.134 88.998,280.386 89.061 C 280.685 89.136,280.840 89.317,280.922 89.690 C 281.145 90.707,282.792 91.861,283.638 91.593 C 284.334 91.372,284.361 90.996,284.317 82.256 L 284.275 73.917 285.580 73.786 C 287.270 73.617,287.715 73.915,287.474 75.050 C 287.185 76.404,287.377 99.615,287.679 99.917 C 288.034 100.272,289.155 100.089,289.954 99.548 C 290.283 99.324,290.926 98.994,291.382 98.814 C 291.839 98.634,292.354 98.307,292.527 98.087 C 292.700 97.866,293.006 97.634,293.206 97.571 C 293.407 97.507,293.714 97.273,293.889 97.050 C 294.065 96.827,294.499 96.461,294.854 96.237 C 295.583 95.777,295.606 95.665,295.232 94.380 C 295.060 93.787,294.859 93.432,294.669 93.382 C 294.366 93.303,294.173 92.604,293.848 90.417 C 293.481 87.937,294.049 82.015,294.689 81.657 C 294.826 81.581,295.084 81.057,295.261 80.493 C 295.498 79.741,295.699 79.409,296.018 79.242 C 296.257 79.118,296.545 78.794,296.657 78.524 C 296.769 78.253,297.003 77.995,297.176 77.949 C 297.350 77.904,297.651 77.597,297.846 77.267 C 298.059 76.904,298.328 76.667,298.524 76.667 C 298.703 76.667,299.030 76.472,299.250 76.234 L 299.651 75.802 299.248 75.367 C 299.026 75.128,298.795 74.704,298.734 74.425 C 298.616 73.889,298.503 73.723,296.934 71.793 C 295.641 70.203,294.370 68.936,293.750 68.620 C 293.475 68.480,293.068 68.170,292.846 67.933 C 292.624 67.695,292.308 67.500,292.143 67.500 C 291.979 67.500,291.592 67.278,291.282 67.006 C 290.677 66.474,290.014 66.167,289.475 66.167 C 289.290 66.167,288.564 65.935,287.861 65.652 C 286.897 65.263,286.154 65.100,284.833 64.987 C 283.871 64.905,282.783 64.811,282.417 64.778 C 282.050 64.746,280.737 64.812,279.500 64.925 M284.306 65.166 C 285.531 65.277,286.288 65.441,286.927 65.734 C 287.422 65.960,288.185 66.197,288.622 66.260 C 289.607 66.402,290.382 66.710,290.852 67.148 C 291.050 67.333,291.419 67.529,291.672 67.584 C 291.925 67.640,292.271 67.840,292.441 68.028 C 292.611 68.216,293.125 68.624,293.583 68.934 C 294.516 69.566,296.387 71.580,297.964 73.650 C 298.741 74.670,298.941 76.167,298.300 76.167 C 298.091 76.167,296.167 78.092,296.167 78.301 C 296.167 78.389,295.973 78.589,295.736 78.744 C 295.499 78.899,295.206 79.264,295.085 79.555 C 294.963 79.845,294.697 80.295,294.493 80.554 C 294.289 80.813,293.950 81.563,293.738 82.221 C 293.527 82.879,293.240 83.717,293.101 84.083 C 292.275 86.260,293.010 91.757,294.474 94.347 C 295.140 95.525,295.134 95.775,294.433 96.109 C 294.121 96.258,293.786 96.555,293.689 96.769 C 293.591 96.982,293.256 97.264,292.944 97.394 C 292.632 97.525,292.273 97.777,292.147 97.955 C 292.020 98.132,291.542 98.416,291.083 98.585 C 290.625 98.755,290.051 99.030,289.808 99.196 C 289.564 99.363,289.217 99.500,289.036 99.500 C 288.235 99.500,288.252 99.771,288.224 86.396 L 288.198 73.844 287.724 73.427 C 287.293 73.048,287.111 73.010,285.713 73.005 C 283.499 72.998,283.667 72.264,283.667 81.960 C 283.667 91.153,283.726 90.769,282.397 90.230 C 281.820 89.996,281.504 89.743,281.310 89.361 C 281.160 89.065,280.860 88.649,280.643 88.437 C 280.427 88.225,279.995 87.759,279.683 87.401 C 278.841 86.435,274.833 82.171,274.208 81.576 C 273.910 81.292,273.667 80.974,273.667 80.870 C 273.667 80.766,273.404 80.471,273.083 80.215 C 272.763 79.959,272.500 79.660,272.500 79.550 C 272.500 79.440,272.230 79.144,271.900 78.893 C 271.570 78.641,271.234 78.261,271.153 78.048 C 271.072 77.835,270.817 77.589,270.586 77.501 C 270.356 77.413,270.167 77.258,270.167 77.156 C 270.167 77.054,269.829 76.621,269.415 76.193 C 267.894 74.621,267.691 74.404,267.177 73.803 L 266.653 73.190 267.118 72.311 C 267.624 71.355,269.614 69.285,270.417 68.880 C 270.692 68.742,271.086 68.418,271.292 68.162 C 271.539 67.856,271.893 67.658,272.324 67.585 C 272.685 67.524,273.154 67.303,273.365 67.095 C 273.897 66.571,274.287 66.395,275.212 66.261 C 275.649 66.197,276.407 65.962,276.897 65.738 C 278.271 65.109,281.178 64.885,284.306 65.166 M223.833 75.627 C 223.833 76.739,223.880 76.949,224.167 77.128 C 224.491 77.330,224.500 77.294,224.500 75.835 C 224.500 74.444,224.475 74.333,224.167 74.333 C 223.862 74.333,223.833 74.444,223.833 75.627 M265.345 75.404 C 265.123 75.640,264.807 75.833,264.641 75.833 C 264.179 75.833,263.886 76.448,263.594 78.028 C 263.448 78.823,263.216 79.739,263.081 80.064 C 262.636 81.129,262.736 85.412,263.237 86.707 C 263.458 87.280,263.690 88.047,263.751 88.411 C 263.894 89.261,264.277 90.000,264.575 90.000 C 264.704 90.000,265.033 90.271,265.306 90.603 C 265.579 90.934,265.885 91.155,265.985 91.093 C 266.256 90.925,266.223 76.084,265.950 75.445 L 265.749 74.974 265.345 75.404 M265.046 76.981 C 265.298 77.566,265.413 85.881,265.192 87.479 C 264.995 88.897,264.542 89.641,264.284 88.968 C 263.510 86.950,263.021 82.955,263.339 81.250 C 263.425 80.792,263.604 79.742,263.739 78.917 C 264.152 76.385,264.542 75.808,265.046 76.981 M298.766 80.707 C 298.528 81.114,298.333 81.554,298.333 81.686 C 298.333 81.818,298.122 82.111,297.865 82.338 C 297.516 82.644,297.337 83.028,297.167 83.832 C 297.032 84.465,296.809 85.018,296.627 85.165 C 296.064 85.621,296.165 90.000,296.739 90.000 C 296.864 90.000,297.002 90.279,297.063 90.658 C 297.163 91.284,297.644 91.833,298.094 91.833 C 298.196 91.833,298.491 91.440,298.748 90.958 C 299.005 90.477,299.327 89.954,299.463 89.796 C 300.499 88.594,301.420 81.165,300.628 80.396 C 300.014 79.800,299.220 79.932,298.766 80.707 M300.090 81.507 C 300.430 81.884,300.493 85.055,300.180 86.083 C 300.096 86.358,299.978 86.943,299.919 87.383 C 299.799 88.269,299.582 88.838,299.083 89.574 C 298.900 89.844,298.675 90.293,298.583 90.572 C 298.376 91.204,297.928 91.313,297.636 90.802 C 297.155 89.958,297.339 84.509,297.877 83.697 C 298.130 83.315,298.519 82.589,298.742 82.085 C 299.190 81.073,299.555 80.917,300.090 81.507 M268.817 83.683 C 268.551 83.949,268.497 84.138,268.591 84.475 C 268.659 84.718,268.760 87.403,268.816 90.441 C 268.906 95.382,268.948 96.000,269.208 96.288 C 269.369 96.465,269.500 96.720,269.500 96.855 C 269.500 97.208,269.843 97.500,270.258 97.500 C 270.455 97.500,270.941 97.735,271.338 98.022 C 271.735 98.310,272.389 98.691,272.791 98.869 C 273.194 99.047,273.775 99.363,274.083 99.572 C 274.390 99.781,275.116 100.044,275.696 100.158 C 276.276 100.271,277.124 100.524,277.582 100.720 C 278.619 101.163,283.753 101.259,284.894 100.856 L 285.538 100.628 285.425 99.777 C 285.297 98.814,285.131 98.543,284.623 98.468 C 284.382 98.433,284.224 98.241,284.127 97.864 C 284.025 97.469,283.848 97.263,283.508 97.144 C 283.234 97.049,282.991 96.819,282.937 96.606 C 282.884 96.396,282.587 96.111,282.255 95.953 C 281.893 95.780,281.667 95.553,281.667 95.362 C 281.667 95.023,281.176 94.500,280.858 94.500 C 280.748 94.500,280.589 94.318,280.504 94.095 C 280.419 93.872,280.121 93.520,279.842 93.313 C 279.562 93.106,279.333 92.838,279.333 92.716 C 279.333 92.595,279.098 92.352,278.810 92.177 C 278.521 92.001,278.090 91.531,277.851 91.132 C 277.612 90.732,276.873 89.868,276.208 89.211 C 275.544 88.554,275.000 87.900,275.000 87.758 C 275.000 87.616,274.862 87.500,274.693 87.500 C 274.510 87.500,274.257 87.257,274.068 86.899 C 273.893 86.569,273.583 86.234,273.380 86.155 C 273.176 86.076,272.898 85.746,272.763 85.422 C 272.619 85.077,272.339 84.764,272.091 84.670 C 271.858 84.581,271.667 84.394,271.667 84.254 C 271.667 83.361,269.561 82.939,268.817 83.683 M274.507 88.266 C 275.896 89.816,277.138 91.143,277.266 91.217 C 277.395 91.290,277.500 91.445,277.500 91.562 C 277.500 91.678,277.819 92.077,278.208 92.447 C 279.246 93.435,281.167 95.480,281.167 95.597 C 281.167 95.653,281.729 96.240,282.417 96.901 C 283.104 97.562,283.667 98.189,283.667 98.293 C 283.667 98.398,283.925 98.680,284.241 98.921 C 286.339 100.522,280.911 101.530,277.447 100.182 C 277.189 100.082,276.718 100.000,276.400 100.000 C 275.722 100.000,275.001 99.720,274.102 99.108 C 273.745 98.865,273.325 98.667,273.168 98.667 C 273.012 98.667,272.553 98.423,272.150 98.125 C 271.747 97.827,271.117 97.469,270.751 97.329 C 269.862 96.989,269.876 97.101,269.853 90.375 C 269.834 84.801,269.841 84.659,270.180 84.320 L 270.527 83.973 271.255 84.711 C 271.655 85.117,273.119 86.716,274.507 88.266 M226.832 95.792 C 226.832 95.952,226.719 96.298,226.582 96.561 C 226.175 97.342,226.237 99.500,226.667 99.500 C 226.981 99.500,227.000 99.389,227.000 97.500 C 227.000 96.400,226.963 95.500,226.917 95.500 C 226.871 95.500,226.833 95.631,226.832 95.792 " stroke="none" fill="#848484" fill-rule="evenodd"></path></g></svg>