<?xml version="1.0" standalone="no"?>
<!DOCTYPE svg PUBLIC "-//W3C//DTD SVG 20010904//EN"
 "http://www.w3.org/TR/2001/REC-SVG-20010904/DTD/svg10.dtd">
<svg version="1.0" xmlns="http://www.w3.org/2000/svg"
 width="479.000000pt" height="105.000000pt" viewBox="0 0 479.000000 105.000000"
 preserveAspectRatio="xMidYMid meet">

<g transform="translate(0.000000,105.000000) scale(0.100000,-0.100000)"
fill="#000000" stroke="none">
<path d="M335 1031 c-52 -32 -323 -314 -330 -343 -4 -15 -4 -35 -1 -45 3 -10
82 -94 174 -186 158 -157 171 -167 206 -167 34 0 47 8 112 71 l74 72 75 -72
c115 -109 109 -111 323 98 227 223 227 189 2 415 -163 164 -171 171 -209 171
-35 0 -47 -7 -91 -50 l-50 -49 35 -35 35 -35 35 34 36 34 137 -137 137 -137
-138 -137 -137 -138 -57 57 -58 58 60 60 c50 50 59 65 59 96 0 33 -13 49 -175
210 -188 186 -196 192 -254 155z m188 -229 l137 -138 -45 -44 c-24 -24 -46
-42 -47 -39 -2 2 -21 23 -42 46 -39 42 -39 43 -21 63 19 21 18 21 -16 56 l-36
35 -36 -40 c-56 -62 -52 -93 22 -173 l60 -63 -57 -58 -57 -57 -140 140 -140
140 135 135 c74 74 137 135 140 135 3 0 67 -62 143 -138z"/>
<path d="M3511 1035 c-137 -43 -165 -213 -46 -278 11 -6 69 -25 128 -43 125
-37 147 -53 147 -101 0 -64 -69 -103 -161 -90 -48 6 -107 49 -115 84 -6 23
-10 25 -47 19 -23 -4 -43 -9 -45 -11 -10 -10 22 -75 51 -102 56 -54 94 -68
182 -68 102 0 168 30 202 91 43 75 22 173 -46 208 -16 9 -75 29 -130 45 -134
39 -153 51 -149 99 9 103 188 110 240 10 18 -34 21 -35 54 -28 20 5 38 11 41
14 12 12 -9 58 -45 95 -60 63 -165 86 -261 56z"/>
<path d="M1560 745 l0 -295 40 0 40 0 0 295 0 295 -40 0 -40 0 0 -295z"/>
<path d="M2300 950 l0 -60 -40 0 c-39 0 -40 -1 -40 -35 0 -34 1 -35 40 -35
l40 0 0 -135 c0 -202 22 -235 155 -235 l65 0 0 35 0 35 -48 0 c-78 0 -86 16
-90 171 l-4 128 69 3 68 3 3 33 3 32 -70 0 -71 0 0 60 0 60 -40 0 -40 0 0 -60z"/>
<path d="M1883 875 c-41 -23 -43 -23 -43 -4 0 16 -7 19 -40 19 l-40 0 0 -220
0 -220 45 0 45 0 0 145 c0 191 17 226 109 227 90 1 111 -43 111 -231 l0 -141
46 0 46 0 -3 158 c-4 145 -6 162 -29 206 -32 61 -75 86 -150 86 -40 0 -67 -7
-97 -25z"/>
<path d="M2682 879 c-76 -38 -112 -107 -112 -214 0 -84 36 -156 94 -190 89
-52 197 -42 267 25 48 46 49 64 3 78 -33 10 -37 9 -63 -20 -67 -76 -211 -27
-211 72 0 19 5 20 161 20 l161 0 -4 58 c-9 122 -70 184 -187 190 -53 2 -75 -1
-109 -19z m152 -59 c28 -10 51 -42 61 -82 l7 -28 -121 0 c-133 0 -136 2 -106
60 27 52 97 74 159 50z"/>
<path d="M4014 882 c-76 -36 -114 -107 -114 -214 0 -57 5 -79 27 -120 65 -119
234 -143 334 -48 48 45 49 64 7 77 -30 9 -37 6 -71 -24 -31 -28 -45 -33 -87
-33 -63 0 -108 35 -117 93 l-6 37 163 0 162 0 -4 58 c-9 122 -71 184 -187 190
-49 2 -77 -2 -107 -16z m157 -68 c27 -14 59 -65 59 -94 0 -6 -44 -10 -120 -10
-132 0 -135 2 -105 60 29 56 105 76 166 44z"/>
<path d="M4505 883 c-81 -42 -118 -107 -118 -208 -1 -109 37 -179 118 -216 80
-37 179 -19 238 43 45 47 44 69 -1 80 -29 8 -36 5 -66 -27 -29 -30 -40 -35
-79 -35 -100 0 -156 116 -111 229 34 86 138 102 198 30 23 -26 29 -29 58 -21
18 4 34 15 36 24 4 22 -56 88 -95 104 -44 19 -141 17 -178 -3z"/>
<path d="M3080 670 l0 -220 40 0 40 0 1 128 c0 71 5 142 12 161 15 44 57 74
102 75 34 1 35 2 35 39 0 36 -1 37 -36 37 -39 0 -67 -12 -101 -43 l-23 -20 0
31 c0 30 -2 32 -35 32 l-35 0 0 -220z"/>
<path d="M1560 165 c0 -57 4 -95 10 -95 6 0 10 38 10 95 0 57 -4 95 -10 95 -6
0 -10 -38 -10 -95z"/>
<path d="M1990 250 c0 -5 5 -10 10 -10 6 0 10 5 10 10 0 6 -4 10 -10 10 -5 0
-10 -4 -10 -10z"/>
<path d="M2550 165 c0 -57 4 -95 10 -95 6 0 10 38 10 95 0 57 -4 95 -10 95 -6
0 -10 -38 -10 -95z"/>
<path d="M3130 250 c0 -5 7 -10 15 -10 8 0 15 5 15 10 0 6 -7 10 -15 10 -8 0
-15 -4 -15 -10z"/>
<path d="M3630 165 c0 -57 4 -95 10 -95 6 0 10 38 10 95 0 57 -4 95 -10 95 -6
0 -10 -38 -10 -95z"/>
<path d="M2070 231 c0 -11 -8 -22 -17 -24 -17 -4 -17 -5 0 -6 13 -1 17 -10 17
-47 0 -58 14 -84 45 -84 14 0 25 5 25 10 0 6 -9 10 -20 10 -18 0 -20 7 -20 54
0 49 2 55 23 59 l22 4 -22 2 c-16 1 -23 7 -23 21 0 11 -7 20 -15 20 -8 0 -15
-9 -15 -19z"/>
<path d="M4550 230 c0 -12 -7 -20 -17 -20 -17 -1 -17 -1 0 -11 13 -7 17 -23
17 -63 0 -56 8 -66 51 -66 27 0 24 18 -3 22 -20 3 -23 10 -26 55 -3 50 -2 52
25 56 l28 4 -27 2 c-21 1 -28 6 -28 21 0 11 -4 20 -10 20 -5 0 -10 -9 -10 -20z"/>
<path d="M1662 210 c-45 -18 -53 -87 -15 -125 12 -12 27 -16 55 -12 43 6 50
-9 18 -38 -17 -15 -24 -16 -46 -6 -30 13 -44 7 -26 -11 7 -7 28 -12 48 -12 53
0 64 21 64 120 0 73 -2 83 -17 82 -10 -1 -27 1 -38 5 -11 3 -30 2 -43 -3z m62
-26 c31 -30 12 -94 -27 -94 -32 0 -47 18 -47 57 0 47 43 69 74 37z"/>
<path d="M2220 213 c-33 -12 -50 -37 -50 -74 0 -43 27 -69 70 -69 30 0 69 25
57 36 -4 4 -13 2 -19 -4 -19 -19 -66 -14 -78 7 -16 30 -14 31 50 31 65 0 75
11 43 48 -20 23 -50 33 -73 25z m48 -25 c25 -25 13 -38 -33 -38 -49 0 -53 4
-28 32 19 21 44 23 61 6z"/>
<path d="M2830 210 c-17 -4 -26 -14 -28 -32 -3 -23 2 -27 40 -39 25 -8 43 -20
43 -29 0 -20 -32 -25 -61 -9 -30 15 -40 7 -19 -15 21 -20 79 -21 99 0 28 28
16 48 -39 66 -45 15 -55 44 -15 42 14 -1 33 -5 44 -9 14 -6 18 -5 14 5 -6 18
-46 28 -78 20z"/>
<path d="M3002 209 c-12 -5 -29 -6 -37 -3 -13 5 -15 -9 -15 -95 0 -83 3 -101
15 -101 10 0 15 10 15 33 0 32 1 33 34 29 44 -5 76 25 76 71 0 50 -44 82 -88
66z m54 -35 c27 -40 9 -79 -35 -79 -29 0 -36 5 -44 28 -7 21 -5 34 7 52 21 32
51 32 72 -1z"/>
<path d="M3360 213 c-32 -12 -50 -37 -50 -70 0 -41 30 -73 68 -73 31 0 71 24
59 36 -4 4 -13 2 -19 -4 -19 -19 -66 -14 -78 7 -16 30 -14 31 50 31 65 0 75
11 43 48 -20 23 -50 33 -73 25z m48 -25 c25 -25 13 -38 -33 -38 -49 0 -53 4
-28 32 19 21 44 23 61 6z"/>
<path d="M4089 208 c-73 -24 -50 -138 28 -138 41 0 73 30 73 68 0 57 -46 88
-101 70z m52 -18 c22 -12 27 -68 7 -88 -15 -15 -51 -15 -66 0 -17 17 -15 64 4
82 18 19 28 20 55 6z"/>
<path d="M4404 210 c-12 -5 -25 -13 -29 -19 -8 -14 18 -14 32 0 13 13 49 4 56
-15 4 -10 -6 -16 -31 -21 -50 -9 -72 -22 -72 -43 0 -38 48 -55 91 -32 13 7 19
7 19 0 0 -5 5 -10 10 -10 15 0 12 116 -2 128 -21 16 -52 21 -74 12z m66 -78
c0 -13 -24 -39 -42 -45 -9 -3 -24 1 -35 9 -17 14 -17 14 1 29 21 16 76 21 76
7z"/>
<path d="M4693 212 c-50 -8 -70 -85 -33 -122 26 -26 81 -26 105 0 16 17 16 20
2 20 -9 0 -19 -4 -22 -10 -9 -14 -48 -13 -63 2 -26 26 -13 38 43 38 46 0 55 3
55 18 0 36 -41 62 -87 54z m51 -28 c26 -25 19 -34 -29 -34 -46 0 -58 13 -33
38 17 17 44 15 62 -4z"/>
<path d="M1810 138 c0 -39 4 -68 10 -68 6 0 10 22 10 49 0 53 20 84 48 79 23
-4 42 -46 42 -90 0 -21 5 -38 10 -38 13 0 13 96 0 121 -9 16 -20 19 -65 18
l-55 -2 0 -69z"/>
<path d="M1990 140 c0 -40 4 -70 10 -70 6 0 10 30 10 70 0 40 -4 70 -10 70 -6
0 -10 -30 -10 -70z"/>
<path d="M2620 138 c0 -39 4 -68 10 -68 6 0 10 15 10 34 0 70 30 107 71 86 15
-9 19 -22 19 -65 0 -42 3 -55 15 -55 19 0 20 74 2 110 -11 22 -19 25 -70 26
l-57 1 0 -69z"/>
<path d="M3130 140 c0 -56 3 -70 15 -70 12 0 15 14 15 70 0 56 -3 70 -15 70
-12 0 -15 -14 -15 -70z"/>
<path d="M3210 140 c0 -81 18 -95 22 -17 2 43 7 54 26 62 12 5 22 13 22 17 0
12 -25 9 -38 -4 -9 -9 -12 -9 -12 0 0 7 -4 12 -10 12 -6 0 -10 -30 -10 -70z"/>
<path d="M3700 138 c0 -39 4 -68 10 -68 6 0 10 22 10 50 0 42 4 52 25 66 24
16 27 16 45 -1 15 -13 20 -31 20 -67 0 -26 5 -48 10 -48 16 0 12 116 -4 129
-7 6 -36 10 -65 9 l-51 -2 0 -68z"/>
<path d="M3880 138 c0 -39 4 -68 10 -68 6 0 10 22 10 49 0 50 17 81 45 81 23
0 45 -42 45 -87 0 -24 5 -43 10 -43 13 0 13 96 0 121 -9 16 -20 19 -65 18
l-55 -2 0 -69z"/>
<path d="M4231 158 c12 -29 24 -61 26 -70 10 -35 31 -17 57 48 15 37 24 69 21
72 -9 9 -22 -10 -35 -50 -17 -55 -27 -55 -47 2 -10 27 -23 50 -30 50 -9 0 -7
-15 8 -52z"/>
<path d="M2410 86 c0 -9 5 -16 10 -16 6 0 10 4 10 9 0 6 -4 13 -10 16 -5 3
-10 -1 -10 -9z"/>
<path d="M3490 85 c0 -8 5 -15 10 -15 6 0 10 7 10 15 0 8 -4 15 -10 15 -5 0
-10 -7 -10 -15z"/>
</g>
</svg>
